<svg width="19.806885" height="19.852539" viewBox="0 0 19.8069 19.8525" fill="none" xmlns="http://www.w3.org/2000/svg" xmlns:xlink="http://www.w3.org/1999/xlink">
	<desc>
			Created with Pixso.
	</desc>
	<defs/>
	<path id="Vector" d="M2.72412 2.82202L6.27014 15.232L9.31018 9.15198L14.9471 6.89697L2.72412 2.82202ZM0.658081 0.026001L19.4641 6.29401C19.5615 6.32623 19.6465 6.3877 19.7078 6.46991C19.769 6.55212 19.8036 6.65118 19.8066 6.75372C19.8097 6.8562 19.7811 6.95715 19.7249 7.04291C19.6686 7.1286 19.5874 7.19501 19.4922 7.23297L10.7592 10.726L6.33411 19.576C6.28906 19.6661 6.2179 19.7405 6.12988 19.7895C6.04187 19.8384 5.94104 19.8597 5.8407 19.8504C5.74036 19.8411 5.64526 19.8017 5.56775 19.7374C5.49011 19.6731 5.43384 19.5869 5.40613 19.49L0.019165 0.637024C-0.00585938 0.549438 -0.00634766 0.456665 0.0175781 0.368774C0.0413818 0.280945 0.0888672 0.201233 0.154785 0.138367C0.220581 0.0754395 0.302368 0.0317383 0.391235 0.0119629C0.480225 -0.0078125 0.572754 -0.00299072 0.65918 0.026001L0.658081 0.026001Z" fill="#000000" fill-opacity="1.000000" fill-rule="nonzero"/>
</svg>
