<svg width="12.000000" height="14.485291" viewBox="0 0 12 14.4853" fill="none" xmlns="http://www.w3.org/2000/svg" xmlns:xlink="http://www.w3.org/1999/xlink">
	<desc>
			Created with Pixso.
	</desc>
	<defs/>
	<path id="Vector" d="M6 12.6L9.3 9.29993C9.95261 8.64728 10.397 7.81573 10.577 6.91052C10.7571 6.00531 10.6646 5.06702 10.3114 4.21429C9.95818 3.36163 9.36003 2.63281 8.59262 2.12006C7.8252 1.6073 6.92296 1.33362 6 1.33362C5.07704 1.33362 4.1748 1.6073 3.40739 2.12006C2.63997 2.63281 2.04184 3.36163 1.68861 4.21429C1.33539 5.06702 1.24295 6.00531 1.42297 6.91052C1.603 7.81573 2.04741 8.64728 2.7 9.29993L6 12.6ZM6 14.4853L1.75734 10.2426C0.918228 9.4035 0.346786 8.33441 0.11528 7.17053C-0.116226 6.00665 0.00260925 4.80023 0.456726 3.70386C0.910858 2.60754 1.6799 1.67047 2.6666 1.01117C3.65329 0.351868 4.81332 0 6 0C7.18669 0 8.34673 0.351868 9.33342 1.01117C10.3201 1.67047 11.0891 2.60754 11.5433 3.70386C11.9974 4.80023 12.1162 6.00665 11.8847 7.17053C11.6532 8.33441 11.0818 9.4035 10.2427 10.2426L6 14.4853ZM6 7.33325C6.35362 7.33325 6.69276 7.19281 6.94281 6.94275C7.19286 6.69269 7.33334 6.35358 7.33334 5.99994C7.33334 5.6463 7.19286 5.30719 6.94281 5.05713C6.69276 4.80707 6.35362 4.66663 6 4.66663C5.64638 4.66663 5.30724 4.80707 5.05719 5.05713C4.80714 5.30719 4.66667 5.6463 4.66667 5.99994C4.66667 6.35358 4.80714 6.69269 5.05719 6.94275C5.30724 7.19281 5.64638 7.33325 6 7.33325ZM6 8.66663C5.29276 8.66663 4.61449 8.38568 4.11438 7.88556C3.61429 7.3855 3.33334 6.70721 3.33334 5.99994C3.33334 5.29272 3.61429 4.61444 4.11438 4.11432C4.61449 3.61426 5.29276 3.33325 6 3.33325C6.70724 3.33325 7.38553 3.61426 7.88562 4.11432C8.38571 4.61444 8.66667 5.29272 8.66667 5.99994C8.66667 6.70721 8.38571 7.3855 7.88562 7.88556C7.38553 8.38568 6.70724 8.66663 6 8.66663Z" fill="#000000" fill-opacity="1.000000" fill-rule="nonzero"/>
</svg>
