<svg width="142" height="71" viewBox="0 0 142 71" fill="none" xmlns="http://www.w3.org/2000/svg">
<path d="M68.8 14.85V6.84998" stroke="black" stroke-width="0.6" stroke-linecap="round"/>
<path d="M68.8 7.34996C69.9598 7.34996 70.9 6.40976 70.9 5.24996C70.9 4.09017 69.9598 3.14996 68.8 3.14996C67.6402 3.14996 66.7 4.09017 66.7 5.24996C66.7 6.40976 67.6402 7.34996 68.8 7.34996Z" fill="black"/>
<path d="M68.8 25.15V33.15" stroke="black" stroke-width="0.6" stroke-linecap="round"/>
<path d="M68.8 32.65C67.6402 32.65 66.7 33.5902 66.7 34.75C66.7 35.9098 67.6402 36.85 68.8 36.85C69.9598 36.85 70.9 35.9098 70.9 34.75C70.9 33.5902 69.9598 32.65 68.8 32.65Z" fill="black"/>
<path d="M73.95 20H81.95" stroke="black" stroke-width="0.6" stroke-linecap="round"/>
<path d="M81.45 20C81.45 21.1598 82.3902 22.1 83.55 22.1C84.7098 22.1 85.65 21.1598 85.65 20C85.65 18.8402 84.7098 17.9 83.55 17.9C82.3902 17.9 81.45 18.8402 81.45 20Z" fill="black"/>
<path d="M63.65 20H55.65" stroke="black" stroke-width="0.6" stroke-linecap="round"/>
<path d="M56.15 20C56.15 18.8402 55.2098 17.9 54.05 17.9C52.8902 17.9 51.95 18.8402 51.95 20C51.95 21.1598 52.8902 22.1 54.05 22.1C55.2098 22.1 56.15 21.1598 56.15 20Z" fill="black"/>
<path d="M71.375 24.46L75.375 31.3882" stroke="black" stroke-width="0.6" stroke-linecap="round"/>
<path d="M75.125 30.9552C74.1205 31.5351 73.7764 32.8195 74.3563 33.8239C74.9362 34.8283 76.2205 35.1724 77.225 34.5925C78.2294 34.0126 78.5735 32.7283 77.9936 31.7239C77.4137 30.7195 76.1294 30.3753 75.125 30.9552Z" fill="black"/>
<path d="M66.225 15.54L62.225 8.61176" stroke="black" stroke-width="0.6" stroke-linecap="round"/>
<path d="M62.475 9.04483C63.4794 8.46493 63.8236 7.18059 63.2437 6.17617C62.6638 5.17176 61.3794 4.82762 60.375 5.40752C59.3706 5.98742 59.0264 7.27176 59.6063 8.27617C60.1862 9.28059 61.4706 9.62472 62.475 9.04483Z" fill="black"/>
<path d="M73.26 22.575L80.1882 26.575" stroke="black" stroke-width="0.6" stroke-linecap="round"/>
<path d="M79.7552 26.325C79.1753 27.3294 79.5194 28.6137 80.5239 29.1936C81.5283 29.7735 82.8126 29.4294 83.3925 28.425C83.9724 27.4206 83.6283 26.1362 82.6239 25.5563C81.6194 24.9764 80.3351 25.3206 79.7552 26.325Z" fill="black"/>
<path d="M64.3399 17.425L57.4117 13.425" stroke="black" stroke-width="0.6" stroke-linecap="round"/>
<path d="M57.8448 13.675C58.4247 12.6705 58.0805 11.3862 57.0761 10.8063C56.0717 10.2264 54.7873 10.5705 54.2074 11.575C53.6275 12.5794 53.9717 13.8637 54.9761 14.4436C55.9805 15.0235 57.2649 14.6794 57.8448 13.675Z" fill="black"/>
<path d="M79.7598 13.3187L86.688 9.31866" stroke="#CC9933" stroke-width="0.6" stroke-linecap="round"/>
<path d="M86.255 9.56862C86.8349 10.573 88.1192 10.9172 89.1237 10.3373C90.1281 9.75737 90.4722 8.47303 89.8923 7.46862C89.3124 6.4642 88.0281 6.12006 87.0237 6.69996C86.0192 7.27986 85.6751 8.5642 86.255 9.56862Z" fill="#CC9933"/>
<path d="M64.3325 22.5687L57.4043 26.5687" stroke="black" stroke-width="0.6" stroke-linecap="round"/>
<path d="M57.8373 26.3187C57.2574 25.3142 55.9731 24.9701 54.9687 25.55C53.9642 26.1299 53.6201 27.4142 54.2 28.4187C54.7799 29.4231 56.0642 29.7672 57.0687 29.1873C58.0731 28.6074 58.4172 27.3231 57.8373 26.3187Z" fill="black"/>
<path d="M71.3747 15.3896L75.3747 8.46143" stroke="black" stroke-width="0.6" stroke-linecap="round"/>
<path d="M75.1247 8.8944C76.1291 9.4743 77.4134 9.13016 77.9933 8.12574C78.5732 7.12133 78.2291 5.83699 77.2247 5.25709C76.2202 4.67719 74.9359 5.02133 74.356 6.02575C73.7761 7.03016 74.1202 8.3145 75.1247 8.8944Z" fill="black"/>
<path d="M66.2247 24.3097L62.2247 31.2379" stroke="black" stroke-width="0.6" stroke-linecap="round"/>
<path d="M62.4747 30.8049C61.4702 30.225 60.1859 30.5691 59.606 31.5735C59.0261 32.5779 59.3702 33.8623 60.3747 34.4422C61.3791 35.0221 62.6634 34.6779 63.2433 33.6735C63.8232 32.6691 63.4791 31.3848 62.4747 30.8049Z" fill="black"/>
<path d="M4.62 60V49.2C4.62 48.6 4.53333 48.12 4.36 47.76C4.2 47.3867 3.82 47.2 3.22 47.2H2.82V46.8H4.62C5.08667 46.8 5.44667 46.86 5.7 46.98C5.96667 47.1 6.15333 47.3333 6.26 47.68C6.36667 48.0267 6.42 48.5333 6.42 49.2V59.2H13.52V60H4.62ZM26.0923 60.1C25.799 60.1 25.439 60.0467 25.0123 59.94C24.5857 59.82 24.1657 59.58 23.7523 59.22C23.339 58.8467 22.9857 58.2733 22.6923 57.5L22.1923 56.2H16.5923L14.9923 60H14.0923L19.6923 46.8H20.2923L24.6923 57.5C25.0123 58.2467 25.319 58.7733 25.6123 59.08C25.9057 59.3733 26.3323 59.5467 26.8923 59.6V60C26.7857 60.0267 26.659 60.0467 26.5123 60.06C26.379 60.0867 26.239 60.1 26.0923 60.1ZM16.8923 55.4H21.7923L19.3923 49.6L16.8923 55.4ZM31.9877 60.34C31.4543 60.34 30.9143 60.28 30.3677 60.16C29.8343 60.0533 29.341 59.8933 28.8877 59.68C28.4477 59.4667 28.0943 59.2133 27.8277 58.92C27.561 58.6133 27.4277 58.2733 27.4277 57.9V55.76H27.7877C28.0143 57.1067 28.4543 58.0733 29.1077 58.66C29.7743 59.2467 30.6743 59.54 31.8077 59.54C32.261 59.54 32.6877 59.4667 33.0877 59.32C33.4877 59.16 33.8077 58.9267 34.0477 58.62C34.301 58.3133 34.4277 57.94 34.4277 57.5C34.4277 56.9133 34.241 56.4133 33.8677 56C33.5077 55.5867 32.961 55.1667 32.2277 54.74L29.7677 53.28C28.9143 52.7733 28.3077 52.26 27.9477 51.74C27.601 51.22 27.4277 50.5867 27.4277 49.84C27.4277 48.8133 27.781 47.9933 28.4877 47.38C29.2077 46.7533 30.1477 46.44 31.3077 46.44C31.801 46.44 32.301 46.4933 32.8077 46.6C33.3143 46.7067 33.781 46.8667 34.2077 47.08C34.6343 47.28 34.9743 47.5267 35.2277 47.82C35.4943 48.1133 35.6277 48.4533 35.6277 48.84V50.98H35.2677C35.041 49.6333 34.6077 48.6733 33.9677 48.1C33.3277 47.5267 32.441 47.24 31.3077 47.24C30.921 47.24 30.5477 47.3267 30.1877 47.5C29.8277 47.66 29.5343 47.8933 29.3077 48.2C29.0943 48.4933 28.9877 48.8467 28.9877 49.26C28.9877 49.8333 29.1743 50.3067 29.5477 50.68C29.921 51.0533 30.4743 51.4533 31.2077 51.88L33.6677 53.34C34.521 53.8467 35.1477 54.34 35.5477 54.82C35.9477 55.2867 36.1477 55.8933 36.1477 56.64C36.1477 57.76 35.7743 58.66 35.0277 59.34C34.281 60.0067 33.2677 60.34 31.9877 60.34ZM39.1317 60V49.2C39.1317 48.6 39.0451 48.12 38.8717 47.76C38.7117 47.3867 38.3317 47.2 37.7317 47.2H37.3317V46.8H45.8517C46.3184 46.8 46.6717 46.88 46.9117 47.04C47.1517 47.1867 47.3184 47.3867 47.4117 47.64C47.5051 47.88 47.5517 48.1333 47.5517 48.4V49.9H47.1517C47.1517 49.1 46.9317 48.52 46.4917 48.16C46.0651 47.7867 45.4517 47.6 44.6517 47.6H40.9317V52.8H46.3317V53.6H40.9317V59.2H44.4317C45.3384 59.2 46.0517 59.0333 46.5717 58.7C47.1051 58.3667 47.5251 57.8 47.8317 57L48.2317 57.1L47.5317 59C47.4251 59.3067 47.2451 59.5533 46.9917 59.74C46.7517 59.9133 46.4317 60 46.0317 60H39.1317ZM59.7086 60.2C59.2553 60.2 58.8353 60.1133 58.4486 59.94C58.0753 59.7533 57.7019 59.4533 57.3286 59.04C56.9686 58.6133 56.5686 58.0333 56.1286 57.3L54.1286 53.9H52.7286V60H50.9286V49.2C50.9286 48.6 50.8419 48.12 50.6686 47.76C50.5086 47.3867 50.1286 47.2 49.5286 47.2H49.1286V46.8H54.3286C54.6619 46.8 55.0486 46.8267 55.4886 46.88C55.9286 46.92 56.3686 47.0067 56.8086 47.14C57.2619 47.2733 57.6753 47.4733 58.0486 47.74C58.4353 48.0067 58.7419 48.3533 58.9686 48.78C59.2086 49.2067 59.3286 49.74 59.3286 50.38C59.3286 51.14 59.1619 51.7533 58.8286 52.22C58.5086 52.6733 58.1019 53.02 57.6086 53.26C57.1153 53.5 56.6219 53.68 56.1286 53.8L58.2286 57.3C58.7353 58.1533 59.1886 58.74 59.5886 59.06C59.9886 59.3667 60.4353 59.5467 60.9286 59.6V60C60.8219 60.0533 60.6553 60.1 60.4286 60.14C60.2153 60.18 59.9753 60.2 59.7086 60.2ZM52.7286 53.2H54.1686C54.4619 53.2 54.7886 53.1467 55.1486 53.04C55.5086 52.9333 55.8553 52.7733 56.1886 52.56C56.5219 52.3333 56.7953 52.04 57.0086 51.68C57.2219 51.32 57.3286 50.88 57.3286 50.36C57.3286 49.84 57.2219 49.4 57.0086 49.04C56.7953 48.68 56.5219 48.3867 56.1886 48.16C55.8553 47.9333 55.5086 47.7667 55.1486 47.66C54.7886 47.5533 54.4619 47.5 54.1686 47.5C53.9553 47.5 53.7086 47.52 53.4286 47.56C53.1619 47.6 52.9286 47.6467 52.7286 47.7V53.2ZM67.8231 60V49.2C67.8231 48.6 67.7365 48.12 67.5631 47.76C67.4031 47.3867 67.0231 47.2 66.4231 47.2H66.0231V46.8H71.2231C71.5698 46.8 71.9565 46.8267 72.3831 46.88C72.8231 46.92 73.2631 47.02 73.7031 47.18C74.1565 47.3267 74.5698 47.5467 74.9431 47.84C75.3298 48.1333 75.6365 48.52 75.8631 49C76.1031 49.48 76.2231 50.08 76.2231 50.8C76.2231 51.48 76.1098 52.0533 75.8831 52.52C75.6565 52.9733 75.3565 53.34 74.9831 53.62C74.6231 53.9 74.2431 54.1133 73.8431 54.26C73.4431 54.3933 73.0631 54.4867 72.7031 54.54C72.3431 54.58 72.0498 54.6 71.8231 54.6H69.6231V60H67.8231ZM69.6231 53.9H71.1231C71.4031 53.9 71.7165 53.8467 72.0631 53.74C72.4098 53.6333 72.7498 53.4533 73.0831 53.2C73.4165 52.9467 73.6898 52.62 73.9031 52.22C74.1165 51.8067 74.2231 51.3 74.2231 50.7C74.2231 50.1 74.1165 49.6 73.9031 49.2C73.6898 48.7867 73.4165 48.4533 73.0831 48.2C72.7498 47.9467 72.4098 47.7667 72.0631 47.66C71.7165 47.5533 71.4031 47.5 71.1231 47.5C70.8698 47.5 70.6031 47.52 70.3231 47.56C70.0565 47.6 69.8231 47.6467 69.6231 47.7V53.9ZM87.6383 60.2C87.1849 60.2 86.7649 60.1133 86.3783 59.94C86.0049 59.7533 85.6316 59.4533 85.2583 59.04C84.8983 58.6133 84.4983 58.0333 84.0583 57.3L82.0583 53.9H80.6583V60H78.8583V49.2C78.8583 48.6 78.7716 48.12 78.5983 47.76C78.4383 47.3867 78.0583 47.2 77.4583 47.2H77.0583V46.8H82.2583C82.5916 46.8 82.9783 46.8267 83.4183 46.88C83.8583 46.92 84.2983 47.0067 84.7383 47.14C85.1916 47.2733 85.6049 47.4733 85.9783 47.74C86.3649 48.0067 86.6716 48.3533 86.8983 48.78C87.1383 49.2067 87.2583 49.74 87.2583 50.38C87.2583 51.14 87.0916 51.7533 86.7583 52.22C86.4383 52.6733 86.0316 53.02 85.5383 53.26C85.0449 53.5 84.5516 53.68 84.0583 53.8L86.1583 57.3C86.6649 58.1533 87.1183 58.74 87.5183 59.06C87.9183 59.3667 88.3649 59.5467 88.8583 59.6V60C88.7516 60.0533 88.5849 60.1 88.3583 60.14C88.1449 60.18 87.9049 60.2 87.6383 60.2ZM80.6583 53.2H82.0983C82.3916 53.2 82.7183 53.1467 83.0783 53.04C83.4383 52.9333 83.7849 52.7733 84.1183 52.56C84.4516 52.3333 84.7249 52.04 84.9383 51.68C85.1516 51.32 85.2583 50.88 85.2583 50.36C85.2583 49.84 85.1516 49.4 84.9383 49.04C84.7249 48.68 84.4516 48.3867 84.1183 48.16C83.7849 47.9333 83.4383 47.7667 83.0783 47.66C82.7183 47.5533 82.3916 47.5 82.0983 47.5C81.8849 47.5 81.6383 47.52 81.3583 47.56C81.0916 47.6 80.8583 47.6467 80.6583 47.7V53.2ZM95.7528 60.4C94.4861 60.4 93.3861 60.0933 92.4528 59.48C91.5328 58.8533 90.8195 58.0133 90.3128 56.96C89.8061 55.8933 89.5528 54.7067 89.5528 53.4C89.5528 52.0933 89.8061 50.9133 90.3128 49.86C90.8195 48.7933 91.5328 47.9533 92.4528 47.34C93.3861 46.7133 94.4861 46.4 95.7528 46.4C97.0195 46.4 98.1128 46.7133 99.0328 47.34C99.9661 47.9533 100.686 48.7933 101.193 49.86C101.699 50.9133 101.953 52.0933 101.953 53.4C101.953 54.7067 101.699 55.8933 101.193 56.96C100.686 58.0133 99.9661 58.8533 99.0328 59.48C98.1128 60.0933 97.0195 60.4 95.7528 60.4ZM95.7528 59.6C96.6328 59.6 97.3861 59.3467 98.0128 58.84C98.6395 58.3333 99.1195 57.62 99.4528 56.7C99.7861 55.7667 99.9528 54.6667 99.9528 53.4C99.9528 52.1333 99.7861 51.04 99.4528 50.12C99.1195 49.1867 98.6395 48.4667 98.0128 47.96C97.3861 47.4533 96.6328 47.2 95.7528 47.2C94.8861 47.2 94.1328 47.4533 93.4928 47.96C92.8661 48.4667 92.3861 49.1867 92.0528 50.12C91.7195 51.04 91.5528 52.1333 91.5528 53.4C91.5528 54.6667 91.7195 55.7667 92.0528 56.7C92.3861 57.62 92.8661 58.3333 93.4928 58.84C94.1328 59.3467 94.8861 59.6 95.7528 59.6ZM104.854 60V49.2C104.854 48.6 104.768 48.12 104.594 47.76C104.434 47.3867 104.054 47.2 103.454 47.2H103.054V46.8H104.854C105.321 46.8 105.681 46.86 105.934 46.98C106.201 47.1 106.388 47.3333 106.494 47.68C106.601 48.0267 106.654 48.5333 106.654 49.2V59.2H113.754V60H104.854ZM126.327 60.1C126.033 60.1 125.673 60.0467 125.247 59.94C124.82 59.82 124.4 59.58 123.987 59.22C123.573 58.8467 123.22 58.2733 122.927 57.5L122.427 56.2H116.827L115.227 60H114.327L119.927 46.8H120.527L124.927 57.5C125.247 58.2467 125.553 58.7733 125.847 59.08C126.14 59.3733 126.567 59.5467 127.127 59.6V60C127.02 60.0267 126.893 60.0467 126.747 60.06C126.613 60.0867 126.473 60.1 126.327 60.1ZM117.127 55.4H122.027L119.627 49.6L117.127 55.4ZM128.702 60V49.2C128.702 48.6 128.615 48.12 128.442 47.76C128.282 47.3867 127.902 47.2 127.302 47.2H126.902V46.8H132.102C132.622 46.8 133.189 46.84 133.802 46.92C134.429 47 135.022 47.16 135.582 47.4C136.142 47.6267 136.602 47.9733 136.962 48.44C137.322 48.9067 137.502 49.5267 137.502 50.3C137.502 50.9 137.295 51.46 136.882 51.98C136.469 52.4867 135.809 52.8933 134.902 53.2C135.769 53.3333 136.442 53.5533 136.922 53.86C137.402 54.1533 137.735 54.5133 137.922 54.94C138.109 55.3667 138.202 55.8533 138.202 56.4C138.202 57.1467 138.035 57.76 137.702 58.24C137.369 58.7067 136.929 59.0667 136.382 59.32C135.849 59.5733 135.255 59.7533 134.602 59.86C133.962 59.9533 133.329 60 132.702 60H128.702ZM132.402 59.3C133.615 59.3 134.549 59.06 135.202 58.58C135.869 58.1 136.202 57.4067 136.202 56.5C136.202 55.5933 135.882 54.9 135.242 54.42C134.602 53.94 133.655 53.7 132.402 53.7H130.502V59.02C130.809 59.1133 131.122 59.1867 131.442 59.24C131.775 59.28 132.095 59.3 132.402 59.3ZM130.502 52.9H132.402C132.935 52.9 133.442 52.8 133.922 52.6C134.415 52.4 134.815 52.1 135.122 51.7C135.442 51.3 135.602 50.8 135.602 50.2C135.602 49.56 135.409 49.04 135.022 48.64C134.649 48.24 134.182 47.9533 133.622 47.78C133.075 47.5933 132.535 47.5 132.002 47.5C131.749 47.5 131.482 47.52 131.202 47.56C130.935 47.6 130.702 47.6467 130.502 47.7V52.9Z" fill="black"/>
</svg>
