<svg width="57.000000" height="57.000000" viewBox="0 0 57 57" fill="none" xmlns="http://www.w3.org/2000/svg" xmlns:xlink="http://www.w3.org/1999/xlink">
	<desc>
			Created with Pixso.
	</desc>
	<defs>
		<clipPath id="clip293_1573">
			<rect id="Logos-Fill/whatsapp-fill" width="57.000000" height="57.000000" fill="white" fill-opacity="0"/>
		</clipPath>
	</defs>
	<g clip-path="url(#clip293_1573)">
		<path id="Vector" d="M4.75 52.25L7.97 40.45C5.85 36.82 4.74 32.69 4.74 28.5C4.74 15.38 15.38 4.75 28.5 4.75C41.61 4.75 52.25 15.38 52.25 28.5C52.25 41.61 41.61 52.25 28.5 52.25C24.3 52.25 20.17 51.14 16.55 49.03L4.75 52.25ZM19.92 17.35C19.62 17.37 19.32 17.45 19.04 17.59C18.78 17.74 18.55 17.92 18.34 18.13C18.06 18.4 17.9 18.63 17.72 18.86C16.85 20 16.37 21.4 16.38 22.84C16.39 24.01 16.69 25.14 17.17 26.2C18.14 28.34 19.74 30.61 21.85 32.71C22.36 33.22 22.85 33.72 23.39 34.2C26.01 36.5 29.13 38.17 32.51 39.06L33.86 39.26C34.3 39.29 34.74 39.25 35.18 39.23C35.87 39.2 36.55 39.01 37.16 38.68C37.55 38.47 37.74 38.37 38.07 38.16C38.07 38.16 38.17 38.09 38.36 37.95C38.68 37.71 38.88 37.54 39.15 37.26C39.34 37.06 39.52 36.82 39.65 36.55C39.83 36.16 40.02 35.42 40.09 34.81C40.15 34.34 40.13 34.08 40.13 33.92C40.12 33.67 39.9 33.4 39.67 33.29L38.29 32.67C38.29 32.67 36.23 31.77 34.96 31.2C34.83 31.14 34.69 31.1 34.54 31.1C34.38 31.08 34.22 31.1 34.06 31.15C33.91 31.2 33.77 31.29 33.65 31.4L33.65 31.39C33.63 31.39 33.48 31.53 31.76 33.61C31.66 33.74 31.52 33.84 31.37 33.9C31.21 33.95 31.04 33.96 30.88 33.92C30.73 33.88 30.58 33.83 30.43 33.76C30.14 33.64 30.03 33.59 29.83 33.5L29.82 33.5C28.46 32.91 27.2 32.1 26.09 31.12C25.79 30.86 25.51 30.58 25.23 30.3C24.3 29.41 23.48 28.4 22.81 27.29L22.67 27.07C22.57 26.91 22.48 26.75 22.42 26.58C22.33 26.23 22.57 25.95 22.57 25.95C22.57 25.95 23.15 25.32 23.41 24.98C23.64 24.69 23.85 24.4 24.04 24.09C24.32 23.64 24.41 23.17 24.26 22.82C23.6 21.19 22.91 19.57 22.2 17.97C22.06 17.65 21.64 17.42 21.27 17.38C21.14 17.36 21.01 17.35 20.88 17.34C20.56 17.32 20.24 17.33 19.92 17.35L19.92 17.35Z" fill="#099A29" fill-opacity="1.000000" fill-rule="nonzero"/>
	</g>
</svg>
