<svg width="142" height="71" fill="none" xmlns="http://www.w3.org/2000/svg"><path d="M68.8 14.85v-8" stroke="#000" stroke-width=".6" stroke-linecap="round"/><path d="M68.8 7.35a2.1 2.1 0 1 0 0-4.2 2.1 2.1 0 0 0 0 4.2Z" fill="#000"/><path d="M68.8 25.15v8" stroke="#000" stroke-width=".6" stroke-linecap="round"/><path d="M68.8 32.65a2.1 2.1 0 1 0 0 4.2 2.1 2.1 0 0 0 0-4.2Z" fill="#000"/><path d="M73.95 20h8" stroke="#000" stroke-width=".6" stroke-linecap="round"/><path d="M81.45 20a2.1 2.1 0 1 0 4.2 0 2.1 2.1 0 0 0-4.2 0Z" fill="#000"/><path d="M63.65 20h-8" stroke="#000" stroke-width=".6" stroke-linecap="round"/><path d="M56.15 20a2.1 2.1 0 1 0-4.2 0 2.1 2.1 0 0 0 4.2 0Z" fill="#000"/><path d="m71.375 24.46 4 6.928" stroke="#000" stroke-width=".6" stroke-linecap="round"/><path d="M75.125 30.955a2.1 2.1 0 1 0 2.1 3.638 2.1 2.1 0 0 0-2.1-3.638Z" fill="#000"/><path d="m66.225 15.54-4-6.928" stroke="#000" stroke-width=".6" stroke-linecap="round"/><path d="M62.475 9.045a2.1 2.1 0 1 0-2.1-3.638 2.1 2.1 0 0 0 2.1 3.638Z" fill="#000"/><path d="m73.26 22.575 6.928 4" stroke="#000" stroke-width=".6" stroke-linecap="round"/><path d="M79.755 26.325a2.1 2.1 0 1 0 3.637 2.1 2.1 2.1 0 0 0-3.637-2.1Z" fill="#000"/><path d="m64.34 17.425-6.928-4" stroke="#000" stroke-width=".6" stroke-linecap="round"/><path d="M57.845 13.675a2.1 2.1 0 1 0-3.638-2.1 2.1 2.1 0 0 0 3.638 2.1Z" fill="#000"/><path d="m79.76 13.319 6.928-4" stroke="#C93" stroke-width=".6" stroke-linecap="round"/><path d="M86.255 9.569a2.1 2.1 0 1 0 3.637-2.1 2.1 2.1 0 0 0-3.637 2.1Z" fill="#C93"/><path d="m64.332 22.569-6.928 4" stroke="#000" stroke-width=".6" stroke-linecap="round"/><path d="M57.837 26.319a2.1 2.1 0 1 0-3.637 2.1 2.1 2.1 0 0 0 3.637-2.1Z" fill="#000"/><path d="m71.375 15.39 4-6.929" stroke="#000" stroke-width=".6" stroke-linecap="round"/><path d="M75.125 8.894a2.1 2.1 0 1 0 2.1-3.637 2.1 2.1 0 0 0-2.1 3.637Z" fill="#000"/><path d="m66.225 24.31-4 6.928" stroke="#000" stroke-width=".6" stroke-linecap="round"/><path d="M62.475 30.805a2.1 2.1 0 1 0-2.1 3.637 2.1 2.1 0 0 0 2.1-3.637ZM4.62 60V49.2c0-.6-.087-1.08-.26-1.44-.16-.373-.54-.56-1.14-.56h-.4v-.4h1.8c.467 0 .827.06 1.08.18.267.12.453.353.56.7.107.347.16.853.16 1.52v10h7.1v.8h-8.9Zm21.472.1c-.293 0-.653-.053-1.08-.16-.426-.12-.846-.36-1.26-.72-.413-.373-.766-.947-1.06-1.72l-.5-1.3h-5.6l-1.6 3.8h-.9l5.6-13.2h.6l4.4 10.7c.32.747.627 1.273.92 1.58.294.293.72.467 1.28.52v.4a2.521 2.521 0 0 1-.38.06c-.133.027-.273.04-.42.04Zm-9.2-4.7h4.9l-2.4-5.8-2.5 5.8Zm15.096 4.94a7.53 7.53 0 0 1-1.62-.18 6.42 6.42 0 0 1-1.48-.48c-.44-.213-.794-.467-1.06-.76a1.518 1.518 0 0 1-.4-1.02v-2.14h.36c.226 1.347.666 2.313 1.32 2.9.666.587 1.566.88 2.7.88.453 0 .88-.073 1.28-.22.4-.16.72-.393.96-.7.253-.307.38-.68.38-1.12 0-.587-.187-1.087-.56-1.5-.36-.413-.907-.833-1.64-1.26l-2.46-1.46c-.854-.507-1.46-1.02-1.82-1.54-.347-.52-.52-1.153-.52-1.9 0-1.027.353-1.847 1.06-2.46.72-.627 1.66-.94 2.82-.94.493 0 .993.053 1.5.16a5.82 5.82 0 0 1 1.4.48c.426.2.766.447 1.02.74.266.293.4.633.4 1.02v2.14h-.36c-.227-1.347-.66-2.307-1.3-2.88s-1.527-.86-2.66-.86c-.387 0-.76.087-1.12.26a2.16 2.16 0 0 0-.88.7c-.214.293-.32.647-.32 1.06 0 .573.186 1.047.56 1.42.373.373.926.773 1.66 1.2l2.46 1.46c.853.507 1.48 1 1.88 1.48.4.467.6 1.073.6 1.82 0 1.12-.374 2.02-1.12 2.7-.747.667-1.76 1-3.04 1Zm7.144-.34V49.2c0-.6-.087-1.08-.26-1.44-.16-.373-.54-.56-1.14-.56h-.4v-.4h8.52c.466 0 .82.08 1.06.24.24.147.406.347.5.6.093.24.14.493.14.76v1.5h-.4c0-.8-.22-1.38-.66-1.74-.427-.373-1.04-.56-1.84-.56h-3.72v5.2h5.4v.8h-5.4v5.6h3.5c.906 0 1.62-.167 2.14-.5.533-.333.953-.9 1.26-1.7l.4.1-.7 1.9a1.513 1.513 0 0 1-.54.74c-.24.173-.56.26-.96.26h-6.9Zm20.577.2c-.454 0-.874-.087-1.26-.26-.374-.187-.747-.487-1.12-.9-.36-.427-.76-1.007-1.2-1.74l-2-3.4h-1.4V60h-1.8V49.2c0-.6-.087-1.08-.26-1.44-.16-.373-.54-.56-1.14-.56h-.4v-.4h5.2c.333 0 .72.027 1.16.08.44.04.88.127 1.32.26.453.133.866.333 1.24.6.386.267.693.613.92 1.04.24.427.36.96.36 1.6 0 .76-.167 1.373-.5 1.84-.32.453-.727.8-1.22 1.04a7.38 7.38 0 0 1-1.48.54l2.1 3.5c.506.853.96 1.44 1.36 1.76.4.307.846.487 1.34.54v.4c-.107.053-.274.1-.5.14-.214.04-.454.06-.72.06Zm-6.98-7h1.44c.293 0 .62-.053.98-.16a4.07 4.07 0 0 0 1.04-.48c.333-.227.606-.52.82-.88.213-.36.32-.8.32-1.32s-.107-.96-.32-1.32a2.732 2.732 0 0 0-.82-.88 3.729 3.729 0 0 0-1.04-.5 3.48 3.48 0 0 0-.98-.16 5.3 5.3 0 0 0-.74.06c-.267.04-.5.087-.7.14v5.5ZM67.823 60V49.2c0-.6-.086-1.08-.26-1.44-.16-.373-.54-.56-1.14-.56h-.4v-.4h5.2c.347 0 .734.027 1.16.08.44.04.88.14 1.32.3.453.147.867.367 1.24.66.387.293.694.68.92 1.16.24.48.36 1.08.36 1.8 0 .68-.113 1.253-.34 1.72-.227.453-.526.82-.9 1.1-.36.28-.74.493-1.14.64-.4.133-.78.227-1.14.28-.36.04-.653.06-.88.06h-2.2V60h-1.8Zm1.8-6.1h1.5c.28 0 .593-.053.94-.16a3.29 3.29 0 0 0 1.02-.54c.334-.253.607-.58.82-.98.213-.413.32-.92.32-1.52s-.106-1.1-.32-1.5a2.903 2.903 0 0 0-.82-1 3.29 3.29 0 0 0-1.02-.54 3.228 3.228 0 0 0-.94-.16c-.253 0-.52.02-.8.06-.266.04-.5.087-.7.14v6.2Zm18.015 6.3c-.453 0-.873-.087-1.26-.26-.373-.187-.746-.487-1.12-.9-.36-.427-.76-1.007-1.2-1.74l-2-3.4h-1.4V60h-1.8V49.2c0-.6-.086-1.08-.26-1.44-.16-.373-.54-.56-1.14-.56h-.4v-.4h5.2c.334 0 .72.027 1.16.08.44.04.88.127 1.32.26.454.133.867.333 1.24.6.387.267.694.613.92 1.04.24.427.36.96.36 1.6 0 .76-.166 1.373-.5 1.84-.32.453-.726.8-1.22 1.04a7.36 7.36 0 0 1-1.48.54l2.1 3.5c.507.853.96 1.44 1.36 1.76.4.307.847.487 1.34.54v.4c-.106.053-.273.1-.5.14-.213.04-.453.06-.72.06Zm-6.98-7h1.44c.294 0 .62-.053.98-.16.36-.107.707-.267 1.04-.48.334-.227.607-.52.82-.88.214-.36.32-.8.32-1.32s-.106-.96-.32-1.32a2.734 2.734 0 0 0-.82-.88 3.73 3.73 0 0 0-1.04-.5 3.48 3.48 0 0 0-.98-.16c-.213 0-.46.02-.74.06-.266.04-.5.087-.7.14v5.5Zm15.095 7.2c-1.267 0-2.367-.307-3.3-.92-.92-.627-1.633-1.467-2.14-2.52-.507-1.067-.76-2.253-.76-3.56s.253-2.487.76-3.54c.507-1.067 1.22-1.907 2.14-2.52.933-.627 2.033-.94 3.3-.94 1.266 0 2.36.313 3.28.94.933.613 1.653 1.453 2.16 2.52.506 1.053.76 2.233.76 3.54s-.254 2.493-.76 3.56c-.507 1.053-1.227 1.893-2.16 2.52-.92.613-2.014.92-3.28.92Zm0-.8c.88 0 1.633-.253 2.26-.76.626-.507 1.106-1.22 1.44-2.14.333-.933.5-2.033.5-3.3s-.167-2.36-.5-3.28c-.334-.933-.814-1.653-1.44-2.16-.627-.507-1.38-.76-2.26-.76-.867 0-1.62.253-2.26.76-.627.507-1.107 1.227-1.44 2.16-.334.92-.5 2.013-.5 3.28s.166 2.367.5 3.3c.333.92.813 1.633 1.44 2.14.64.507 1.393.76 2.26.76Zm9.101.4V49.2c0-.6-.086-1.08-.26-1.44-.16-.373-.54-.56-1.14-.56h-.4v-.4h1.8c.467 0 .827.06 1.08.18.267.12.454.353.56.7.107.347.16.853.16 1.52v10h7.1v.8h-8.9Zm21.473.1c-.294 0-.654-.053-1.08-.16-.427-.12-.847-.36-1.26-.72-.414-.373-.767-.947-1.06-1.72l-.5-1.3h-5.6l-1.6 3.8h-.9l5.6-13.2h.6l4.4 10.7c.32.747.626 1.273.92 1.58.293.293.72.467 1.28.52v.4a2.544 2.544 0 0 1-.38.06c-.134.027-.274.04-.42.04Zm-9.2-4.7h4.9l-2.4-5.8-2.5 5.8Zm11.575 4.6V49.2c0-.6-.087-1.08-.26-1.44-.16-.373-.54-.56-1.14-.56h-.4v-.4h5.2c.52 0 1.087.04 1.7.12.627.08 1.22.24 1.78.48.56.227 1.02.573 1.38 1.04.36.467.54 1.087.54 1.86 0 .6-.207 1.16-.62 1.68-.413.507-1.073.913-1.98 1.22.867.133 1.54.353 2.02.66.48.293.813.653 1 1.08.187.427.28.913.28 1.46 0 .747-.167 1.36-.5 1.84a3.28 3.28 0 0 1-1.32 1.08 6.613 6.613 0 0 1-1.78.54c-.64.093-1.273.14-1.9.14h-4Zm3.7-.7c1.213 0 2.147-.24 2.8-.72.667-.48 1-1.173 1-2.08s-.32-1.6-.96-2.08c-.64-.48-1.587-.72-2.84-.72h-1.9v5.32c.307.093.62.167.94.22.333.04.653.06.96.06Zm-1.9-6.4h1.9c.533 0 1.04-.1 1.52-.3.493-.2.893-.5 1.2-.9.32-.4.48-.9.48-1.5 0-.64-.193-1.16-.58-1.56-.373-.4-.84-.687-1.4-.86a4.993 4.993 0 0 0-2.42-.22c-.267.04-.5.087-.7.14v5.2Z" fill="#000"/></svg>