<svg width="99.467163" height="13.213867" viewBox="0 0 99.4672 13.2139" fill="none" xmlns="http://www.w3.org/2000/svg" xmlns:xlink="http://www.w3.org/1999/xlink">
	<desc>
			Created with Pixso.
	</desc>
	<defs/>
	<path id="@laser_prolab" d="M16.4208 0L15.0776 0L15.0776 10.3872L16.4208 10.3872L16.4208 0ZM80.8488 0L79.5056 0L79.5056 10.3872L80.8488 10.3872L80.8488 0ZM97.4221 3.25769Q96.6539 2.89844 95.7176 2.89844Q94.9578 2.89844 94.312 3.16993Q94.2781 3.1842 94.2445 3.19922Q93.9269 3.34181 93.6592 3.54893Q93.3623 3.7787 93.1268 4.08789L93.1268 0L91.7836 0L91.7836 10.3872L93.0721 10.3872L93.0721 9.21143Q93.306 9.5328 93.6043 9.7749Q93.877 9.99627 94.2035 10.1514Q94.2423 10.1695 94.2817 10.1867Q94.9373 10.4727 95.7176 10.4727Q96.6539 10.4727 97.4221 10.1134Q97.5373 10.0595 97.6488 9.99756Q98.0536 9.77089 98.3747 9.45832Q98.7316 9.11104 98.9852 8.65771Q99.0038 8.62459 99.0216 8.59108Q99.4671 7.7534 99.4671 6.67871Q99.4671 5.57407 98.9993 4.72826Q98.9923 4.71566 98.9852 4.70312Q98.7387 4.26599 98.3946 3.92815Q98.0661 3.60559 97.6488 3.37354Q97.5373 3.31157 97.4221 3.25769ZM9.96529 1.26012Q8.4874 0.48877 6.60693 0.48877Q4.72833 0.48877 3.25081 1.25857Q3.20947 1.28011 3.16845 1.30225Q2.29073 1.77501 1.64121 2.46317Q1.17781 2.95411 0.830559 3.55469Q0.709676 3.76462 0.606386 3.98287Q-7.62939e-06 5.26421 -7.62939e-06 6.83252Q-7.62939e-06 8.37163 0.581373 9.64539Q0.692019 9.8878 0.823723 10.1206Q1.19641 10.7767 1.70373 11.303Q2.32233 11.9447 3.14111 12.3936Q3.19514 12.4233 3.24973 12.452Q4.70099 13.2139 6.55224 13.2139Q7.32128 13.2139 8.13134 13.0464Q8.94482 12.8789 9.56005 12.5576L9.25243 11.6621Q8.66454 11.9697 7.95019 12.1235Q7.23583 12.2773 6.55224 12.2773Q4.91161 12.2773 3.65722 11.5835Q2.97853 11.2071 2.46383 10.6727Q2.02981 10.2221 1.71239 9.65918Q1.68222 9.6054 1.65336 9.55091Q1.02197 8.35894 1.02197 6.83252Q1.02197 5.38745 1.60337 4.23593Q1.65867 4.1264 1.71923 4.01953Q2.03203 3.4687 2.45791 3.02685Q2.98601 2.47895 3.68798 2.09863Q4.95605 1.41162 6.60693 1.41162Q8.24413 1.41162 9.5122 2.07129Q10.2987 2.47829 10.8655 3.08908Q11.2127 3.46312 11.4775 3.91357Q11.5383 4.01616 11.5938 4.12151Q12.1782 5.23079 12.1782 6.64795Q12.1782 7.96387 11.833 8.68506Q11.5879 9.2023 11.2021 9.34858Q11.05 9.40625 10.876 9.40625Q10.674 9.40625 10.5133 9.32477Q10.3966 9.26563 10.3018 9.16357Q10.0796 8.91748 10.0796 8.39795L10.0796 3.35986L8.85937 3.35986L8.85937 4.49463Q8.62863 4.18214 8.33416 3.95077Q8.07464 3.74686 7.76562 3.60596Q7.10937 3.30176 6.29931 3.30176Q5.54253 3.30176 4.90171 3.57435Q4.71187 3.6551 4.53222 3.75977Q4.21587 3.9435 3.95536 4.18697Q3.5713 4.5459 3.30859 5.03467Q3.25846 5.12753 3.21404 5.22305Q2.86767 5.96774 2.86767 6.87354Q2.86767 7.83275 3.24591 8.60724Q3.27605 8.66895 3.30859 8.72949Q3.55927 9.19393 3.92042 9.54457Q4.19451 9.81067 4.53222 10.0112Q4.71947 10.1211 4.91778 10.2049Q5.55201 10.4727 6.29931 10.4727Q7.18114 10.4727 7.8579 10.1309Q8.17163 9.97163 8.43009 9.74841Q8.73199 9.48768 8.95849 9.13965Q9.0617 9.66687 9.37437 9.99375Q9.4448 10.0674 9.52587 10.1309Q9.5629 10.1596 9.60156 10.1859Q10.0233 10.4727 10.6401 10.4727Q11.1866 10.4727 11.6208 10.2519Q12.1209 9.99768 12.4722 9.45068Q13.1318 8.42871 13.1318 6.63428Q13.1318 5.15097 12.5598 3.93728Q12.4411 3.68549 12.2978 3.44531Q11.9543 2.86796 11.5004 2.39678Q10.8527 1.72429 9.98046 1.26807Q9.97288 1.26408 9.96529 1.26012ZM24.0421 3.65381Q23.2253 2.89844 21.6838 2.89844Q20.7882 2.89844 19.9884 3.14453Q19.1921 3.38721 18.6178 3.84863L19.1784 4.85693Q19.6125 4.49463 20.2414 4.2793Q20.6687 4.13148 21.1069 4.08355Q21.3172 4.06055 21.5299 4.06055Q22.5109 4.06055 23.0133 4.52197Q23.0952 4.59668 23.1639 4.68204Q23.5192 5.12396 23.5192 5.85156L23.5192 6.11816L21.3898 6.11816Q19.838 6.11816 19.1237 6.71289Q18.8197 6.96594 18.6451 7.28892Q18.4093 7.72501 18.4093 8.28857Q18.4093 8.79781 18.6125 9.20595Q18.7993 9.58127 19.1579 9.87109Q19.9064 10.4727 21.154 10.4727Q22.005 10.4727 22.6271 10.1992Q23.1208 9.98338 23.4335 9.61421Q23.517 9.51569 23.5876 9.40625L23.5876 10.3872L24.8625 10.3872L24.8625 5.90625Q24.8625 4.54708 24.1863 3.79926Q24.1177 3.72339 24.0421 3.65381ZM27.8112 10.2493Q28.6153 10.4727 29.4815 10.4727Q30.9683 10.4727 31.8263 9.87793Q32.2996 9.54923 32.5128 9.09771Q32.6876 8.72758 32.6876 8.2749Q32.6876 7.5496 32.3284 7.13659Q32.3119 7.11753 32.2945 7.09912Q32.1184 6.90913 31.9088 6.7694Q31.6546 6.59993 31.3512 6.50439Q30.7975 6.32666 29.9019 6.17285Q29.232 6.04639 28.8595 5.95068Q28.4903 5.85156 28.2374 5.64307Q28.1436 5.5645 28.0846 5.46526Q27.9845 5.29683 27.9845 5.06885Q27.9845 4.8966 28.0459 4.75016Q28.1504 4.50141 28.4322 4.32715Q28.88 4.04688 29.7345 4.04688Q30.8305 4.04688 31.6703 4.51073Q31.7759 4.56908 31.8775 4.63477L32.4517 3.56836Q31.9732 3.26074 31.2315 3.07959Q30.4898 2.89844 29.7481 2.89844Q28.3331 2.89844 27.4923 3.50684Q27.047 3.83036 26.8385 4.26698Q26.6549 4.65142 26.6549 5.12354Q26.6549 5.86779 27.0226 6.29683Q27.0416 6.319 27.0616 6.34033Q27.2691 6.56172 27.5174 6.7182Q27.756 6.86855 28.0323 6.95898Q28.5997 7.14014 29.4952 7.28027Q30.1549 7.38965 30.5103 7.48193Q30.8692 7.57422 31.1051 7.76904Q31.195 7.84231 31.2512 7.93587Q31.3443 8.09111 31.3443 8.30225Q31.3443 8.55062 31.2373 8.73782Q30.9099 9.31055 29.5807 9.31055Q29.4208 9.31055 29.2617 9.30011Q28.7095 9.2639 28.1656 9.10205Q27.4683 8.89014 26.9762 8.53809L26.4156 9.60449Q26.8941 9.98047 27.7315 10.2266Q27.7713 10.2382 27.8112 10.2493ZM41.0483 7.12646Q41.0756 6.87354 41.0756 6.71973Q41.0756 5.60997 40.6134 4.74806Q40.6087 4.73925 40.6039 4.73047Q40.3324 4.22706 39.9379 3.85351Q39.6521 3.58285 39.3017 3.38037Q39.1879 3.31435 39.0698 3.25737Q38.3255 2.89844 37.4081 2.89844Q36.52 2.89844 35.7836 3.23268Q35.6358 3.29979 35.4941 3.38037Q35.1392 3.58296 34.8477 3.85379Q34.4458 4.22725 34.1645 4.73047Q34.0805 4.88171 34.0112 5.03938Q33.6825 5.78679 33.6825 6.67871Q33.6825 7.57408 34.0168 8.31963Q34.0895 8.48197 34.1782 8.63721Q34.3805 8.98932 34.6504 9.27846Q35.0459 9.70222 35.5864 9.99072Q36.4955 10.4727 37.6713 10.4727Q38.5976 10.4727 39.3461 10.165Q39.8813 9.94267 40.2906 9.57878Q40.4539 9.4337 40.5971 9.26611L39.8554 8.39795Q39.5644 8.72085 39.2064 8.92776Q38.5677 9.29688 37.7157 9.29688Q36.8259 9.29688 36.1737 8.90326Q36.0242 8.81304 35.8871 8.70215Q35.5724 8.446 35.3693 8.12026Q35.0981 7.68538 35.0258 7.12646L41.0483 7.12646ZM44.5613 3.74447Q44.3665 3.95419 44.2261 4.21436L44.2261 2.9668L42.9376 2.9668L42.9376 10.3872L44.2808 10.3872L44.2808 6.69238Q44.2808 5.52938 44.8588 4.88402Q44.8804 4.85986 44.9029 4.83643Q45.0302 4.7028 45.1773 4.59653Q45.7488 4.18359 46.6187 4.18359Q46.8135 4.18359 46.9263 4.20068L46.9263 2.89844Q45.9454 2.89844 45.2584 3.2334Q44.8501 3.43346 44.5613 3.74447ZM61.1341 3.25769Q60.3659 2.89844 59.4296 2.89844Q58.6207 2.89844 57.9458 3.19922Q57.9306 3.20598 57.9155 3.21289Q57.6037 3.35633 57.3409 3.56234Q57.0276 3.80798 56.7841 4.14258L56.7841 2.9668L55.4956 2.9668L55.4956 13.1045L56.8388 13.1045L56.8388 9.26611Q57.113 9.61544 57.4584 9.86702Q57.6943 10.0388 57.9633 10.165Q57.9976 10.1809 58.0323 10.1959Q58.671 10.4727 59.4296 10.4727Q60.3659 10.4727 61.1341 10.1134Q61.2493 10.0595 61.3608 9.99756Q61.7656 9.77089 62.0867 9.45832Q62.4436 9.11104 62.6972 8.65771Q62.7158 8.62459 62.7336 8.59108Q63.1792 7.7534 63.1792 6.67871Q63.1792 5.57407 62.7113 4.72826Q62.7043 4.71566 62.6972 4.70312Q62.4507 4.26599 62.1066 3.92815Q61.7782 3.60559 61.3608 3.37354Q61.2493 3.31157 61.1341 3.25769ZM66.6673 3.74447Q66.4725 3.95419 66.3321 4.21436L66.3321 2.9668L65.0436 2.9668L65.0436 10.3872L66.3868 10.3872L66.3868 6.69238Q66.3868 5.52938 66.9648 4.88402Q66.9864 4.85986 67.0089 4.83643Q67.1362 4.7028 67.2833 4.59653Q67.8548 4.18359 68.7247 4.18359Q68.9195 4.18359 69.0323 4.20068L69.0323 2.89844Q68.0514 2.89844 67.3644 3.2334Q66.9561 3.43346 66.6673 3.74447ZM72.0525 10.1094Q72.8396 10.4727 73.7943 10.4727Q74.7523 10.4727 75.5379 10.1046Q75.6576 10.0485 75.7733 9.98389Q76.2426 9.71991 76.6027 9.34975Q76.9141 9.02974 77.1439 8.63037Q77.2296 8.48244 77.3006 8.32775Q77.6429 7.58178 77.6429 6.67871Q77.6429 5.76121 77.2917 5.00726Q77.2243 4.86243 77.1439 4.72363Q76.905 4.30849 76.578 3.98148Q76.2265 3.63002 75.7733 3.38037Q75.6753 3.3264 75.5744 3.27848Q74.7746 2.89844 73.7943 2.89844Q72.8172 2.89844 72.0157 3.27359Q71.9088 3.32364 71.805 3.38037Q71.3353 3.63708 70.9742 4.00145Q70.6574 4.32111 70.4241 4.72363Q70.349 4.85423 70.2852 4.99017Q69.9285 5.7508 69.9285 6.67871Q69.9285 7.59208 70.2763 8.34475Q70.3437 8.49058 70.4241 8.63037Q70.6481 9.01692 70.9492 9.32911Q71.3189 9.71258 71.805 9.98389Q71.9266 10.0513 72.0525 10.1094ZM88.4701 3.65381Q87.6533 2.89844 86.1117 2.89844Q85.2162 2.89844 84.4164 3.14453Q83.62 3.38721 83.0458 3.84863L83.6064 4.85693Q84.0405 4.49463 84.6694 4.2793Q85.0967 4.13148 85.5349 4.08355Q85.7452 4.06055 85.9579 4.06055Q86.9389 4.06055 87.4413 4.52197Q87.5232 4.59668 87.5919 4.68204Q87.9472 5.12396 87.9472 5.85156L87.9472 6.11816L85.8178 6.11816Q84.266 6.11816 83.5517 6.71289Q83.2477 6.96594 83.0731 7.28892Q82.8373 7.72501 82.8373 8.28857Q82.8373 8.79781 83.0405 9.20595Q83.2273 9.58127 83.5859 9.87109Q84.3344 10.4727 85.582 10.4727Q86.433 10.4727 87.0551 10.1992Q87.5488 9.98338 87.8615 9.61421Q87.945 9.51569 88.0156 9.40625L88.0156 10.3872L89.2905 10.3872L89.2905 5.90625Q89.2905 4.54708 88.6143 3.79926Q88.5457 3.72339 88.4701 3.65381ZM36.2316 4.30507Q36.7462 4.02979 37.4081 4.02979Q38.0479 4.02979 38.5491 4.29328Q38.803 4.42678 39.0214 4.62793Q39.26 4.84528 39.4265 5.10828Q39.7155 5.56492 39.787 6.15918L35.0258 6.15918Q35.1029 5.50741 35.4307 5.02648Q35.5825 4.80376 35.788 4.61768Q35.9941 4.43208 36.2316 4.30507ZM60.3803 9.08042Q59.897 9.29688 59.3168 9.29688Q58.8148 9.29688 58.3776 9.12839Q58.2047 9.06175 58.0419 8.96875Q57.7921 8.82448 57.5901 8.63036Q57.3279 8.37841 57.1464 8.04248Q56.8251 7.44775 56.8251 6.67871Q56.8251 5.90625 57.1533 5.31836Q57.3485 4.96858 57.6284 4.71075Q57.819 4.53524 58.0488 4.40234Q58.1937 4.31855 58.3473 4.25615Q58.7951 4.07422 59.3168 4.07422Q59.9177 4.07422 60.4145 4.30151Q60.5084 4.34445 60.5986 4.39551Q60.8045 4.51208 60.9788 4.66465Q61.285 4.93258 61.4941 5.31152Q61.4987 5.31991 61.5033 5.32832Q61.8222 5.91714 61.8222 6.67871Q61.8222 7.4255 61.5128 8.00791Q61.5036 8.02527 61.4941 8.04248Q61.2917 8.40924 60.9984 8.6759Q60.8161 8.84166 60.5986 8.96875Q60.492 9.03037 60.3803 9.08042ZM74.8347 9.08916Q74.3599 9.29688 73.7943 9.29688Q73.2141 9.29688 72.7308 9.08042Q72.6191 9.03037 72.5125 8.96875Q72.301 8.84516 72.1223 8.68499Q71.8216 8.41551 71.6136 8.04248Q71.6041 8.02527 71.5949 8.00791Q71.2855 7.4255 71.2855 6.67871Q71.2855 5.91714 71.6044 5.32832Q71.609 5.31991 71.6136 5.31152Q71.8283 4.92642 72.1418 4.65597Q72.3125 4.50875 72.5125 4.39551Q72.6027 4.34445 72.6966 4.30151Q73.1934 4.07422 73.7943 4.07422Q74.3802 4.07422 74.8686 4.29245Q74.9728 4.33901 75.0726 4.39551Q75.2897 4.51843 75.4707 4.68138Q75.7629 4.94434 75.9613 5.31152Q76.286 5.90625 76.286 6.67871Q76.286 7.43777 75.9696 8.027Q75.9655 8.03476 75.9613 8.04248Q75.7696 8.39729 75.4903 8.65843Q75.3015 8.835 75.0726 8.96875Q74.9566 9.03581 74.8347 9.08916ZM96.6683 9.08042Q96.185 9.29688 95.6048 9.29688Q95.1027 9.29688 94.6656 9.12839Q94.4927 9.06175 94.3299 8.96875Q94.0801 8.82448 93.8781 8.63036Q93.6159 8.37841 93.4344 8.04248Q93.1131 7.44775 93.1131 6.67871Q93.1131 5.90625 93.4344 5.31152Q93.6228 4.96278 93.8982 4.70806Q94.0924 4.52839 94.3299 4.39551Q94.4774 4.31302 94.6331 4.25171Q95.0841 4.07422 95.6048 4.07422Q96.2057 4.07422 96.7025 4.30151Q96.7964 4.34445 96.8866 4.39551Q97.0924 4.51208 97.2668 4.66465Q97.573 4.93258 97.7821 5.31152Q97.7867 5.31991 97.7913 5.32832Q98.1102 5.91714 98.1102 6.67871Q98.1102 7.4255 97.8008 8.00791Q97.7916 8.02527 97.7821 8.04248Q97.5797 8.40924 97.2864 8.6759Q97.1041 8.84166 96.8866 8.96875Q96.78 9.03037 96.6683 9.08042ZM7.58817 9.14002Q7.09955 9.37891 6.49413 9.37891Q5.80748 9.37891 5.28475 9.08618Q5.00867 8.93157 4.77831 8.69531Q4.64151 8.55358 4.53294 8.39278Q4.11523 7.77419 4.11523 6.87354Q4.11523 5.95264 4.54742 5.33338Q4.64779 5.18956 4.77148 5.06201Q4.97886 4.84818 5.22611 4.70157Q5.76532 4.38184 6.49413 4.38184Q7.12181 4.38184 7.62395 4.63291Q7.67142 4.65664 7.71777 4.68262Q7.90212 4.7853 8.06019 4.91905Q8.36515 5.17709 8.57226 5.55078Q8.89013 6.11816 8.89013 6.87354Q8.89013 7.62891 8.57226 8.19629Q8.36916 8.56275 8.07196 8.82084Q7.90901 8.96235 7.71777 9.07129Q7.65403 9.10783 7.58817 9.14002ZM22.7057 9.0918Q22.1452 9.43359 21.3761 9.43359Q20.6071 9.43359 20.173 9.1123Q19.9759 8.96641 19.8683 8.77118Q19.7389 8.53648 19.7389 8.23047Q19.7389 7.87319 19.9043 7.62706Q20.2706 7.08203 21.4479 7.08203L23.5192 7.08203L23.5192 8.11768Q23.3696 8.49171 23.1123 8.76408Q22.9347 8.95218 22.7057 9.0918ZM87.1337 9.0918Q86.5732 9.43359 85.8041 9.43359Q85.0351 9.43359 84.601 9.1123Q84.4039 8.96641 84.2963 8.77118Q84.1669 8.53648 84.1669 8.23047Q84.1669 7.87319 84.3323 7.62706Q84.6986 7.08203 85.8759 7.08203L87.9472 7.08203L87.9472 8.11768Q87.7976 8.49171 87.5403 8.76408Q87.3627 8.95218 87.1337 9.0918ZM54.2207 10.3872L47.2207 10.3872L47.2207 11.2554L54.2207 11.2554L54.2207 10.3872Z" fill="#F8A9B1" fill-opacity="1.000000" fill-rule="evenodd"/>
</svg>
