<svg width="45.000000" height="45.000000" viewBox="0 0 45 45" fill="none" xmlns="http://www.w3.org/2000/svg" xmlns:xlink="http://www.w3.org/1999/xlink">
	<desc>
			Created with Pixso.
	</desc>
	<defs>
		<clipPath id="clip153_2073">
			<rect id="logo 1" width="45.000000" height="45.000000" fill="white" fill-opacity="0"/>
		</clipPath>
	</defs>
	<rect id="logo 1" width="45.000000" height="45.000000" fill="#FFFFFF" fill-opacity="0"/>
	<g clip-path="url(#clip153_2073)">
		<path id="Vector" d="M20.02 7.7L20.02 " stroke="#000000" stroke-opacity="1.000000" stroke-width="0.675000" stroke-linecap="round"/>
		<path id="Vector" d="M22.38 5.9C22.38 7.21 21.33 8.26 20.02 8.26C18.72 8.26 17.66 7.21 17.66 5.9C17.66 4.6 18.72 3.54 20.02 3.54C21.33 3.54 22.38 4.6 22.38 5.9Z" fill="#000000" fill-opacity="1.000000" fill-rule="evenodd"/>
		<path id="Vector" d="M20.02 28.29L20.02 " stroke="#000000" stroke-opacity="1.000000" stroke-width="0.675000" stroke-linecap="round"/>
		<path id="Vector" d="M17.66 39.09C17.66 37.78 18.72 36.73 20.02 36.73C21.33 36.73 22.38 37.78 22.38 39.09C22.38 40.39 21.33 41.45 20.02 41.45C18.72 41.45 17.66 40.39 17.66 39.09Z" fill="#000000" fill-opacity="1.000000" fill-rule="evenodd"/>
		<path id="Vector" d="M25.81 22.5L34.81 " stroke="#000000" stroke-opacity="1.000000" stroke-width="0.675000" stroke-linecap="round"/>
		<path id="Vector" d="M36.61 24.86C35.31 24.86 34.25 23.8 34.25 22.5C34.25 21.19 35.31 20.13 36.61 20.13C37.92 20.13 38.98 21.19 38.98 22.5C38.98 23.8 37.92 24.86 36.61 24.86Z" fill="#000000" fill-opacity="1.000000" fill-rule="evenodd"/>
		<path id="Vector" d="M5.23 22.5L14.23 " stroke="#000000" stroke-opacity="1.000000" stroke-width="0.675000" stroke-linecap="round"/>
		<path id="Vector" d="M3.43 20.13C4.73 20.13 5.79 21.19 5.79 22.49C5.79 23.8 4.73 24.86 3.43 24.86C2.12 24.86 1.06 23.8 1.06 22.49C1.06 21.19 2.12 20.13 3.43 20.13Z" fill="#000000" fill-opacity="1.000000" fill-rule="evenodd"/>
		<path id="Vector" d="M22.92 27.51L27.42 " stroke="#000000" stroke-opacity="1.000000" stroke-width="0.675000" stroke-linecap="round"/>
		<path id="Vector" d="M26.27 38.05C25.62 36.92 26.01 35.47 27.14 34.82C28.27 34.17 29.71 34.55 30.36 35.68C31.02 36.81 30.63 38.26 29.5 38.91C28.37 39.56 26.92 39.18 26.27 38.05Z" fill="#000000" fill-opacity="1.000000" fill-rule="evenodd"/>
		<path id="Vector" d="M12.62 9.68L17.12 " stroke="#000000" stroke-opacity="1.000000" stroke-width="0.675000" stroke-linecap="round"/>
		<path id="Vector" d="M13.77 6.94C14.42 8.07 14.03 9.52 12.9 10.17C11.77 10.82 10.33 10.44 9.68 9.31C9.02 8.18 9.41 6.73 10.54 6.08C11.67 5.43 13.12 5.81 13.77 6.94Z" fill="#000000" fill-opacity="1.000000" fill-rule="evenodd"/>
		<path id="Vector" d="M25.04 25.39L32.83 " stroke="#000000" stroke-opacity="1.000000" stroke-width="0.675000" stroke-linecap="round"/>
		<path id="Vector" d="M33.21 32.84C32.08 32.19 31.69 30.74 32.34 29.61C33 28.48 34.44 28.09 35.57 28.75C36.7 29.4 37.09 30.84 36.44 31.97C35.78 33.1 34.34 33.49 33.21 32.84Z" fill="#000000" fill-opacity="1.000000" fill-rule="evenodd"/>
		<path id="Vector" d="M7.21 15.1L15 " stroke="#000000" stroke-opacity="1.000000" stroke-width="0.675000" stroke-linecap="round"/>
		<path id="Vector" d="M6.83 12.15C7.96 12.8 8.35 14.25 7.7 15.38C7.04 16.51 5.6 16.9 4.47 16.24C3.34 15.59 2.95 14.15 3.6 13.02C4.26 11.89 5.7 11.5 6.83 12.15Z" fill="#000000" fill-opacity="1.000000" fill-rule="evenodd"/>
		<path id="Vector" d="M32.35 14.98L40.14 " stroke="#CC9933" stroke-opacity="1.000000" stroke-width="0.675000" stroke-linecap="round"/>
		<path id="Vector" d="M42.88 11.62C41.75 12.28 40.31 11.89 39.66 10.76C39 9.63 39.39 8.18 40.52 7.53C41.65 6.88 43.1 7.27 43.75 8.4C44.4 9.53 44.01 10.97 42.88 11.62Z" fill="#CC9933" fill-opacity="1.000000" fill-rule="evenodd"/>
		<path id="Vector" d="M7.2 29.88L14.99 " stroke="#000000" stroke-opacity="1.000000" stroke-width="0.675000" stroke-linecap="round"/>
		<path id="Vector" d="M4.46 28.74C5.59 28.09 7.03 28.47 7.69 29.6C8.34 30.73 7.95 32.18 6.82 32.83C5.69 33.48 4.25 33.1 3.6 31.97C2.94 30.84 3.33 29.39 4.46 28.74Z" fill="#000000" fill-opacity="1.000000" fill-rule="evenodd"/>
		<path id="Vector" d="M22.92 17.31L27.42 " stroke="#000000" stroke-opacity="1.000000" stroke-width="0.675000" stroke-linecap="round"/>
		<path id="Vector" d="M30.36 9.14C29.71 10.27 28.27 10.65 27.14 10C26.01 9.35 25.62 7.9 26.27 6.77C26.92 5.64 28.37 5.26 29.5 5.91C30.63 6.56 31.01 8.01 30.36 9.14Z" fill="#000000" fill-opacity="1.000000" fill-rule="evenodd"/>
		<path id="Vector" d="M12.62 35.14L17.12 " stroke="#000000" stroke-opacity="1.000000" stroke-width="0.675000" stroke-linecap="round"/>
		<path id="Vector" d="M9.68 35.52C10.33 34.39 11.77 34 12.9 34.65C14.03 35.3 14.42 36.75 13.77 37.88C13.12 39.01 11.67 39.39 10.54 38.74C9.41 38.09 9.02 36.65 9.68 35.52Z" fill="#000000" fill-opacity="1.000000" fill-rule="evenodd"/>
	</g>
</svg>
