<svg width="582.000000" height="582.000000" viewBox="0 0 582 582" fill="none" xmlns="http://www.w3.org/2000/svg" xmlns:xlink="http://www.w3.org/1999/xlink">
	<desc>
			Created with Pixso.
	</desc>
	<defs>
		<clipPath id="clip111_2858">
			<rect id="logo2" width="582.000000" height="582.000000" fill="white" fill-opacity="0"/>
		</clipPath>
	</defs>
	<g opacity="0.100000">
		<g clip-path="url(#clip111_2858)">
			<path id="line" d="M263.33 216.04L263.35 216.06C263.35 218.51 261.43 220.43 258.99 220.43C256.54 220.43 254.62 218.51 254.62 216.06L254.64 216.04L263.33 216.04ZM254.64 99.68L254.62 99.66C254.62 97.22 256.54 95.3 258.99 95.3C261.43 95.3 263.35 97.22 263.35 99.66L263.33 99.68L254.64 99.68Z" fill="#000000" fill-opacity="0" fill-rule="nonzero"/>
			<path id="line" d="M258.99 216.06L258.99 99.66" stroke="#000000" stroke-opacity="1.000000" stroke-width="8.730000" stroke-linecap="round"/>
			<circle id="circle" cx="258.990112" cy="76.387451" r="30.555000" fill="#000000" fill-opacity="1.000000"/>
			<path id="line" d="M254.64 365.95L254.62 365.93C254.62 363.48 256.54 361.56 258.99 361.56C261.43 361.56 263.35 363.48 263.35 365.93L263.33 365.95L254.64 365.95ZM263.33 482.31L263.35 482.33C263.35 484.77 261.43 486.69 258.99 486.69C256.54 486.69 254.62 484.77 254.62 482.33L254.64 482.31L263.33 482.31Z" fill="#000000" fill-opacity="0" fill-rule="nonzero"/>
			<path id="line" d="M258.99 365.93L258.99 482.33" stroke="#000000" stroke-opacity="1.000000" stroke-width="8.730000" stroke-linecap="round"/>
			<circle id="circle" r="30.555000" transform="matrix(-1 0 0 -1 258.99 505.613)" fill="#000000" fill-opacity="1.000000"/>
			<path id="line" d="M333.94 295.34L333.92 295.36C331.47 295.36 329.55 293.44 329.55 291C329.55 288.55 331.47 286.63 333.92 286.63L333.94 286.65L333.94 295.34ZM450.3 286.65L450.32 286.63C452.76 286.63 454.68 288.55 454.68 291C454.68 293.44 452.76 295.36 450.32 295.36L450.3 295.34L450.3 286.65Z" fill="#000000" fill-opacity="0" fill-rule="nonzero"/>
			<path id="line" d="M333.92 291L450.32 291" stroke="#000000" stroke-opacity="1.000000" stroke-width="8.730000" stroke-linecap="round"/>
			<circle id="circle" r="30.555000" transform="matrix(0 1 -1 0 473.602 291)" fill="#000000" fill-opacity="1.000000"/>
			<path id="line" d="M184.03 286.65L184.05 286.63C186.5 286.63 188.42 288.55 188.42 291C188.42 293.44 186.5 295.36 184.05 295.36L184.03 295.34L184.03 286.65ZM67.67 295.34L67.65 295.36C65.21 295.36 63.29 293.44 63.29 291C63.29 288.55 65.21 286.63 67.65 286.63L67.67 286.65L67.67 295.34Z" fill="#000000" fill-opacity="0" fill-rule="nonzero"/>
			<path id="line" d="M184.05 291L67.65 291" stroke="#000000" stroke-opacity="1.000000" stroke-width="8.730000" stroke-linecap="round"/>
			<circle id="circle" r="30.555000" transform="matrix(0 -1 1 0 44.3776 291)" fill="#000000" fill-opacity="1.000000"/>
			<path id="line" d="M292.7 358.08L292.67 358.07C291.45 355.95 292.15 353.33 294.27 352.11C296.39 350.89 299.01 351.59 300.23 353.71L300.22 353.73L292.7 358.08ZM358.4 454.51L358.43 454.51C359.65 456.63 358.95 459.25 356.83 460.47C354.72 461.7 352.09 460.99 350.87 458.88L350.88 458.85L358.4 454.51Z" fill="#000000" fill-opacity="0" fill-rule="nonzero"/>
			<path id="line" d="M296.45 355.89L354.65 456.69" stroke="#000000" stroke-opacity="1.000000" stroke-width="8.730000" stroke-linecap="round"/>
			<ellipse id="circle" rx="30.555012" ry="30.555000" transform="matrix(-0.866025 0.5 -0.5 -0.866025 366.296 476.861)" fill="#000000" fill-opacity="1.000000"/>
			<path id="line" d="M225.27 223.91L225.3 223.92C226.52 226.04 225.82 228.66 223.7 229.88C221.58 231.1 218.96 230.4 217.74 228.28L217.75 228.26L225.27 223.91ZM159.57 127.49L159.54 127.48C158.32 125.36 159.02 122.74 161.14 121.52C163.25 120.29 165.88 121 167.1 123.11L167.09 123.14L159.57 127.49Z" fill="#000000" fill-opacity="0" fill-rule="nonzero"/>
			<path id="line" d="M221.52 226.1L163.32 125.3" stroke="#000000" stroke-opacity="1.000000" stroke-width="8.730000" stroke-linecap="round"/>
			<circle id="circle" r="30.555000" transform="matrix(0.866025 -0.5 0.5 0.866025 151.684 105.14)" fill="#000000" fill-opacity="1.000000"/>
			<path id="line" d="M321.72 332.23L321.7 332.24C319.58 331.02 318.88 328.4 320.1 326.28C321.32 324.16 323.94 323.46 326.06 324.68L326.07 324.71L321.72 332.23ZM426.84 382.89L426.87 382.88C428.98 384.1 429.69 386.73 428.46 388.84C427.24 390.96 424.62 391.66 422.5 390.44L422.49 390.41L426.84 382.89Z" fill="#000000" fill-opacity="0" fill-rule="nonzero"/>
			<path id="line" d="M323.88 328.46L424.68 386.66" stroke="#000000" stroke-opacity="1.000000" stroke-width="8.730000" stroke-linecap="round"/>
			<circle id="circle" r="30.555000" transform="matrix(-0.5 0.866025 -0.866025 -0.5 444.849 398.306)" fill="#000000" fill-opacity="1.000000"/>
			<path id="line" d="M196.25 249.76L196.27 249.75C198.39 250.97 199.09 253.59 197.87 255.71C196.65 257.83 194.03 258.53 191.91 257.31L191.9 257.28L196.25 249.76ZM91.13 199.1L91.1 199.11C88.99 197.89 88.28 195.26 89.51 193.15C90.73 191.03 93.35 190.33 95.47 191.55L95.48 191.58L91.13 199.1Z" fill="#000000" fill-opacity="0" fill-rule="nonzero"/>
			<path id="line" d="M194.09 253.53L93.29 195.33" stroke="#000000" stroke-opacity="1.000000" stroke-width="8.730000" stroke-linecap="round"/>
			<circle id="circle" r="30.555000" transform="matrix(0.5 -0.866025 0.866025 0.5 73.1298 183.694)" fill="#000000" fill-opacity="1.000000"/>
			<path id="line" d="M420.64 197.53L420.63 197.56C418.52 198.78 415.89 198.08 414.67 195.96C413.45 193.85 414.15 191.22 416.27 190L416.3 190.01L420.64 197.53ZM517.07 131.83L517.07 131.8C519.19 130.58 521.81 131.28 523.04 133.4C524.26 135.52 523.56 138.14 521.44 139.36L521.41 139.35L517.07 131.83Z" fill="#000000" fill-opacity="0" fill-rule="nonzero"/>
			<path id="line" d="M418.45 193.78L519.26 135.58" stroke="#CC9933" stroke-opacity="1.000000" stroke-width="8.730000" stroke-linecap="round"/>
			<circle id="circle" r="30.555000" transform="matrix(0.5 0.866025 -0.866025 0.5 539.422 123.947)" fill="#CC9933" fill-opacity="1.000000"/>
			<path id="line" d="M191.79 324.62L191.8 324.59C193.92 323.37 196.54 324.07 197.76 326.19C198.99 328.3 198.28 330.93 196.17 332.15L196.14 332.14L191.79 324.62ZM95.37 390.32L95.36 390.35C93.24 391.57 90.62 390.87 89.4 388.75C88.18 386.63 88.88 384.01 91 382.79L91.02 382.8L95.37 390.32Z" fill="#000000" fill-opacity="0" fill-rule="nonzero"/>
			<path id="line" d="M193.98 328.37L93.18 386.57" stroke="#000000" stroke-opacity="1.000000" stroke-width="8.730000" stroke-linecap="round"/>
			<circle id="circle" r="30.555000" transform="matrix(-0.5 -0.866025 0.866025 -0.5 73.0214 398.214)" fill="#000000" fill-opacity="1.000000"/>
			<path id="line" d="M300.22 226.07L300.23 226.1C299 228.21 296.38 228.92 294.26 227.7C292.15 226.47 291.44 223.85 292.67 221.73L292.69 221.72L300.22 226.07ZM350.87 120.95L350.87 120.93C352.09 118.81 354.71 118.11 356.83 119.33C358.95 120.55 359.65 123.18 358.43 125.29L358.4 125.3L350.87 120.95Z" fill="#000000" fill-opacity="0" fill-rule="nonzero"/>
			<path id="line" d="M296.45 223.91L354.65 123.11" stroke="#000000" stroke-opacity="1.000000" stroke-width="8.730000" stroke-linecap="round"/>
			<ellipse id="circle" rx="30.555012" ry="30.555000" transform="matrix(0.866025 0.5 -0.5 0.866025 366.291 102.953)" fill="#000000" fill-opacity="1.000000"/>
			<path id="line" d="M217.74 351.55L217.73 351.52C218.96 349.4 221.58 348.7 223.7 349.92C225.81 351.14 226.52 353.77 225.29 355.88L225.27 355.89L217.74 351.55ZM167.09 456.66L167.09 456.69C165.87 458.81 163.25 459.51 161.13 458.29C159.01 457.06 158.31 454.44 159.53 452.32L159.56 452.32L167.09 456.66Z" fill="#000000" fill-opacity="0" fill-rule="nonzero"/>
			<path id="line" d="M221.51 353.7L163.31 454.51" stroke="#000000" stroke-opacity="1.000000" stroke-width="8.730000" stroke-linecap="round"/>
			<circle id="circle" r="30.555000" transform="matrix(-0.866025 -0.5 0.5 -0.866025 151.679 474.673)" fill="#000000" fill-opacity="1.000000"/>
		</g>
	</g>
</svg>
