<svg width="715.000000" height="715.000000" viewBox="0 0 715 715" fill="none" xmlns="http://www.w3.org/2000/svg" xmlns:xlink="http://www.w3.org/1999/xlink">
	<desc>
			Created with Pixso.
	</desc>
	<defs>
		<clipPath id="clip111_2804">
			<rect id="logo" width="715.000000" height="715.000000" fill="white" fill-opacity="0"/>
		</clipPath>
	</defs>
	<g opacity="0.100000">
		<g clip-path="url(#clip111_2804)">
			<path id="line" d="M323.51 265.42L323.53 265.44C323.53 268.44 321.17 270.8 318.17 270.8C315.17 270.8 312.81 268.44 312.81 265.44L312.83 265.42L323.51 265.42ZM312.83 122.46L312.81 122.44C312.81 119.44 315.17 117.08 318.17 117.08C321.17 117.08 323.53 119.44 323.53 122.44L323.51 122.46L312.83 122.46Z" fill="#000000" fill-opacity="0" fill-rule="nonzero"/>
			<path id="line" d="M318.17 265.44L318.17 122.44" stroke="#000000" stroke-opacity="1.000000" stroke-width="10.724999" stroke-linecap="round"/>
			<circle id="circle" cx="318.175018" cy="93.843750" r="37.537498" fill="#000000" fill-opacity="1.000000"/>
			<path id="line" d="M312.83 449.57L312.81 449.55C312.81 446.55 315.17 444.19 318.17 444.19C321.17 444.19 323.53 446.55 323.53 449.55L323.51 449.57L312.83 449.57ZM323.51 592.53L323.53 592.55C323.53 595.55 321.17 597.91 318.17 597.91C315.17 597.91 312.81 595.55 312.81 592.55L312.83 592.53L323.51 592.53Z" fill="#000000" fill-opacity="0" fill-rule="nonzero"/>
			<path id="line" d="M318.17 449.55L318.17 592.55" stroke="#000000" stroke-opacity="1.000000" stroke-width="10.724999" stroke-linecap="round"/>
			<circle id="circle" r="37.537498" transform="matrix(-1 0 0 -1 318.175 621.156)" fill="#000000" fill-opacity="1.000000"/>
			<path id="line" d="M410.25 362.84L410.23 362.86C407.22 362.86 404.86 360.5 404.86 357.5C404.86 354.49 407.22 352.13 410.23 352.13L410.25 352.15L410.25 362.84ZM553.21 352.15L553.23 352.13C556.23 352.13 558.59 354.49 558.59 357.5C558.59 360.5 556.23 362.86 553.23 362.86L553.21 362.84L553.21 352.15Z" fill="#000000" fill-opacity="0" fill-rule="nonzero"/>
			<path id="line" d="M410.23 357.5L553.23 357.5" stroke="#000000" stroke-opacity="1.000000" stroke-width="10.724999" stroke-linecap="round"/>
			<circle id="circle" r="37.537498" transform="matrix(0 1 -1 0 581.831 357.5)" fill="#000000" fill-opacity="1.000000"/>
			<path id="line" d="M226.09 352.15L226.11 352.13C229.12 352.13 231.48 354.49 231.48 357.5C231.48 360.5 229.12 362.86 226.11 362.86L226.09 362.84L226.09 352.15ZM83.13 362.84L83.11 362.86C80.11 362.86 77.75 360.5 77.75 357.5C77.75 354.49 80.11 352.13 83.11 352.13L83.13 352.15L83.13 362.84Z" fill="#000000" fill-opacity="0" fill-rule="nonzero"/>
			<path id="line" d="M226.11 357.5L83.11 357.5" stroke="#000000" stroke-opacity="1.000000" stroke-width="10.724999" stroke-linecap="round"/>
			<circle id="circle" r="37.537498" transform="matrix(0 -1 1 0 54.5188 357.5)" fill="#000000" fill-opacity="1.000000"/>
			<path id="line" d="M359.58 439.91L359.55 439.9C358.05 437.3 358.92 434.08 361.52 432.57C364.12 431.07 367.34 431.94 368.84 434.54L368.83 434.57L359.58 439.91ZM440.31 558.37L440.34 558.38C441.84 560.98 440.98 564.2 438.38 565.7C435.78 567.21 432.56 566.34 431.05 563.74L431.06 563.71L440.31 558.37Z" fill="#000000" fill-opacity="0" fill-rule="nonzero"/>
			<path id="line" d="M364.2 437.22L435.7 561.06" stroke="#000000" stroke-opacity="1.000000" stroke-width="10.724999" stroke-linecap="round"/>
			<ellipse id="circle" rx="37.537510" ry="37.537498" transform="matrix(-0.866025 0.5 -0.5 -0.866025 450.002 585.833)" fill="#000000" fill-opacity="1.000000"/>
			<path id="line" d="M276.76 275.08L276.79 275.09C278.29 277.69 277.42 280.91 274.82 282.42C272.22 283.92 269 283.05 267.5 280.45L267.51 280.43L276.76 275.08ZM196.03 156.62L196 156.61C194.5 154.01 195.36 150.79 197.96 149.29C200.56 147.78 203.78 148.65 205.29 151.25L205.28 151.28L196.03 156.62Z" fill="#000000" fill-opacity="0" fill-rule="nonzero"/>
			<path id="line" d="M272.14 277.77L200.64 153.93" stroke="#000000" stroke-opacity="1.000000" stroke-width="10.724999" stroke-linecap="round"/>
			<circle id="circle" r="37.537498" transform="matrix(0.866025 -0.5 0.5 0.866025 186.347 129.167)" fill="#000000" fill-opacity="1.000000"/>
			<path id="line" d="M395.24 408.16L395.21 408.17C392.61 406.67 391.75 403.44 393.25 400.84C394.75 398.24 397.97 397.38 400.57 398.88L400.58 398.91L395.24 408.16ZM524.39 470.39L524.42 470.38C527.02 471.88 527.88 475.1 526.38 477.7C524.88 480.31 521.65 481.17 519.05 479.67L519.05 479.64L524.39 470.39Z" fill="#000000" fill-opacity="0" fill-rule="nonzero"/>
			<path id="line" d="M397.89 403.52L521.73 475.02" stroke="#000000" stroke-opacity="1.000000" stroke-width="10.724999" stroke-linecap="round"/>
			<circle id="circle" r="37.537498" transform="matrix(-0.5 0.866025 -0.866025 -0.5 546.508 489.328)" fill="#000000" fill-opacity="1.000000"/>
			<path id="line" d="M241.1 306.83L241.13 306.82C243.73 308.32 244.59 311.55 243.09 314.15C241.59 316.75 238.37 317.61 235.76 316.11L235.76 316.08L241.1 306.83ZM111.95 244.6L111.92 244.61C109.32 243.11 108.46 239.89 109.96 237.29C111.46 234.69 114.69 233.82 117.29 235.32L117.29 235.35L111.95 244.6Z" fill="#000000" fill-opacity="0" fill-rule="nonzero"/>
			<path id="line" d="M238.45 311.47L114.6 239.97" stroke="#000000" stroke-opacity="1.000000" stroke-width="10.724999" stroke-linecap="round"/>
			<circle id="circle" r="37.537498" transform="matrix(0.5 -0.866025 0.866025 0.5 89.8415 225.672)" fill="#000000" fill-opacity="1.000000"/>
			<path id="line" d="M516.77 242.68L516.76 242.71C514.16 244.21 510.93 243.35 509.43 240.75C507.93 238.15 508.79 234.92 511.4 233.42L511.42 233.43L516.77 242.68ZM635.23 161.95L635.24 161.92C637.84 160.42 641.06 161.28 642.56 163.89C644.06 166.49 643.2 169.71 640.6 171.21L640.57 171.2L635.23 161.95Z" fill="#000000" fill-opacity="0" fill-rule="nonzero"/>
			<path id="line" d="M514.08 238.07L637.92 166.57" stroke="#CC9933" stroke-opacity="1.000000" stroke-width="10.724999" stroke-linecap="round"/>
			<circle id="circle" r="37.537498" transform="matrix(0.5 0.866025 -0.866025 0.5 662.691 152.271)" fill="#CC9933" fill-opacity="1.000000"/>
			<path id="line" d="M235.63 398.79L235.63 398.77C238.23 397.26 241.46 398.13 242.96 400.73C244.46 403.33 243.6 406.55 241 408.05L240.97 408.05L235.63 398.79ZM117.16 479.53L117.15 479.55C114.55 481.06 111.33 480.19 109.83 477.59C108.33 474.99 109.19 471.77 111.79 470.27L111.82 470.27L117.16 479.53Z" fill="#000000" fill-opacity="0" fill-rule="nonzero"/>
			<path id="line" d="M238.31 403.41L114.47 474.91" stroke="#000000" stroke-opacity="1.000000" stroke-width="10.724999" stroke-linecap="round"/>
			<circle id="circle" r="37.537498" transform="matrix(-0.5 -0.866025 0.866025 -0.5 89.7084 489.214)" fill="#000000" fill-opacity="1.000000"/>
			<path id="line" d="M368.83 277.74L368.84 277.77C367.33 280.37 364.11 281.23 361.51 279.73C358.91 278.23 358.05 275 359.55 272.4L359.58 272.4L368.83 277.74ZM431.06 148.59L431.05 148.56C432.55 145.96 435.77 145.1 438.37 146.6C440.97 148.1 441.84 151.32 440.34 153.92L440.31 153.93L431.06 148.59Z" fill="#000000" fill-opacity="0" fill-rule="nonzero"/>
			<path id="line" d="M364.19 275.09L435.69 151.24" stroke="#000000" stroke-opacity="1.000000" stroke-width="10.724999" stroke-linecap="round"/>
			<ellipse id="circle" rx="37.537510" ry="37.537498" transform="matrix(0.866025 0.5 -0.5 0.866025 449.997 126.48)" fill="#000000" fill-opacity="1.000000"/>
			<path id="line" d="M267.5 431.88L267.49 431.85C268.99 429.25 272.22 428.39 274.82 429.89C277.42 431.39 278.28 434.61 276.78 437.21L276.75 437.22L267.5 431.88ZM205.27 561.03L205.28 561.05C203.78 563.65 200.56 564.52 197.95 563.02C195.35 561.52 194.49 558.29 195.99 555.69L196.02 555.68L205.27 561.03Z" fill="#000000" fill-opacity="0" fill-rule="nonzero"/>
			<path id="line" d="M272.14 434.53L200.64 558.37" stroke="#000000" stroke-opacity="1.000000" stroke-width="10.724999" stroke-linecap="round"/>
			<circle id="circle" r="37.537498" transform="matrix(-0.866025 -0.5 0.5 -0.866025 186.341 583.146)" fill="#000000" fill-opacity="1.000000"/>
		</g>
	</g>
</svg>
