<svg width="265.000000" height="93.000000" viewBox="0 0 265 93" fill="none" xmlns="http://www.w3.org/2000/svg" xmlns:xlink="http://www.w3.org/1999/xlink">
	<desc>
			Created with Pixso.
	</desc>
	<defs>
		<clipPath id="clip141_122">
			<rect id="logo 1" width="60.000000" height="60.000000" fill="white" fill-opacity="0"/>
		</clipPath>
	</defs>
	<rect id="Logo_footer" width="265.000000" height="60.000000" fill="#FFFFFF" fill-opacity="0"/>
	<rect id="logo 1" width="60.000000" height="60.000000" fill="#FFFFFF" fill-opacity="0"/>
	<g clip-path="url(#clip141_122)">
		<path id="Vector" d="M26.7 22.275L26.7 10.275" stroke="#000000" stroke-opacity="1.000000" stroke-width="0.900000" stroke-linecap="round"/>
		<path id="Vector" d="M29.85 7.87498C29.85 9.61468 28.4397 11.025 26.7 11.025C24.9603 11.025 23.55 9.61468 23.55 7.87498C23.55 6.13528 24.9603 4.72498 26.7 4.72498C28.4397 4.72498 29.85 6.13528 29.85 7.87498Z" fill="#000000" fill-opacity="1.000000" fill-rule="evenodd"/>
		<path id="Vector" d="M26.7 37.725L26.7 49.725" stroke="#000000" stroke-opacity="1.000000" stroke-width="0.900000" stroke-linecap="round"/>
		<path id="Vector" d="M23.55 52.125C23.55 50.3853 24.9603 48.975 26.7 48.975C28.4397 48.975 29.85 50.3853 29.85 52.125C29.85 53.8647 28.4397 55.275 26.7 55.275C24.9603 55.275 23.55 53.8647 23.55 52.125Z" fill="#000000" fill-opacity="1.000000" fill-rule="evenodd"/>
		<path id="Vector" d="M34.425 30L46.425 30" stroke="#000000" stroke-opacity="1.000000" stroke-width="0.900000" stroke-linecap="round"/>
		<path id="Vector" d="M48.825 33.15C47.0853 33.15 45.675 31.7397 45.675 30C45.675 28.2603 47.0853 26.85 48.825 26.85C50.5647 26.85 51.975 28.2603 51.975 30C51.975 31.7397 50.5647 33.15 48.825 33.15Z" fill="#000000" fill-opacity="1.000000" fill-rule="evenodd"/>
		<path id="Vector" d="M18.975 30L6.97501 30" stroke="#000000" stroke-opacity="1.000000" stroke-width="0.900000" stroke-linecap="round"/>
		<path id="Vector" d="M4.575 26.85C6.3147 26.85 7.725 28.2603 7.725 30C7.725 31.7397 6.3147 33.15 4.575 33.15C2.8353 33.15 1.425 31.7397 1.425 30C1.425 28.2603 2.8353 26.85 4.575 26.85Z" fill="#000000" fill-opacity="1.000000" fill-rule="evenodd"/>
		<path id="Vector" d="M30.5624 36.6901L36.5624 47.0824" stroke="#000000" stroke-opacity="1.000000" stroke-width="0.900000" stroke-linecap="round"/>
		<path id="Vector" d="M35.0344 50.7358C34.1646 49.2292 34.6808 47.3027 36.1874 46.4328C37.694 45.563 39.6206 46.0792 40.4904 47.5858C41.3602 49.0924 40.844 51.0189 39.3374 51.8888C37.8308 52.7586 35.9043 52.2424 35.0344 50.7358Z" fill="#000000" fill-opacity="1.000000" fill-rule="evenodd"/>
		<path id="Vector" d="M22.8375 23.3099L16.8375 12.9176" stroke="#000000" stroke-opacity="1.000000" stroke-width="0.900000" stroke-linecap="round"/>
		<path id="Vector" d="M18.3655 9.26424C19.2353 10.7709 18.7191 12.6974 17.2125 13.5672C15.7059 14.4371 13.7794 13.9209 12.9095 12.4142C12.0397 10.9076 12.5559 8.98111 14.0625 8.11127C15.5691 7.24142 17.4956 7.75762 18.3655 9.26424Z" fill="#000000" fill-opacity="1.000000" fill-rule="evenodd"/>
		<path id="Vector" d="M33.39 33.8625L43.7823 39.8625" stroke="#000000" stroke-opacity="1.000000" stroke-width="0.900000" stroke-linecap="round"/>
		<path id="Vector" d="M44.2858 43.7905C42.7792 42.9206 42.2629 40.9941 43.1328 39.4875C44.0026 37.9809 45.9292 37.4647 47.4358 38.3345C48.9424 39.2043 49.4586 41.1309 48.5888 42.6375C47.7189 44.1441 45.7924 44.6603 44.2858 43.7905Z" fill="#000000" fill-opacity="1.000000" fill-rule="evenodd"/>
		<path id="Vector" d="M20.0099 26.1375L9.61755 20.1375" stroke="#000000" stroke-opacity="1.000000" stroke-width="0.900000" stroke-linecap="round"/>
		<path id="Vector" d="M9.11415 16.2095C10.6208 17.0794 11.137 19.0059 10.2671 20.5125C9.39729 22.0191 7.47078 22.5353 5.96416 21.6655C4.45753 20.7956 3.94133 18.8691 4.81118 17.3625C5.68102 15.8559 7.60753 15.3397 9.11415 16.2095Z" fill="#000000" fill-opacity="1.000000" fill-rule="evenodd"/>
		<path id="Vector" d="M43.1397 19.978L53.532 13.978" stroke="#CC9933" stroke-opacity="1.000000" stroke-width="0.900000" stroke-linecap="round"/>
		<path id="Vector" d="M57.1855 15.5059C55.6789 16.3758 53.7523 15.8596 52.8825 14.353C52.0126 12.8463 52.5289 10.9198 54.0355 10.05C55.5421 9.18014 57.4686 9.69634 58.3385 11.203C59.2083 12.7096 58.6921 14.6361 57.1855 15.5059Z" fill="#CC9933" fill-opacity="1.000000" fill-rule="evenodd"/>
		<path id="Vector" d="M19.9988 33.853L9.60645 39.853" stroke="#000000" stroke-opacity="1.000000" stroke-width="0.900000" stroke-linecap="round"/>
		<path id="Vector" d="M5.95298 38.325C7.4596 37.4551 9.38611 37.9713 10.256 39.478C11.1258 40.9846 10.6096 42.9111 9.10298 43.7809C7.59636 44.6508 5.66985 44.1346 4.8 42.628C3.93015 41.1213 4.44636 39.1948 5.95298 38.325Z" fill="#000000" fill-opacity="1.000000" fill-rule="evenodd"/>
		<path id="Vector" d="M30.562 23.0844L36.562 12.6921" stroke="#000000" stroke-opacity="1.000000" stroke-width="0.900000" stroke-linecap="round"/>
		<path id="Vector" d="M40.49 12.1887C39.6201 13.6953 37.6936 14.2115 36.187 13.3416C34.6804 12.4718 34.1641 10.5453 35.034 9.03866C35.9038 7.53204 37.8304 7.01583 39.337 7.88567C40.8436 8.75552 41.3598 10.682 40.49 12.1887Z" fill="#000000" fill-opacity="1.000000" fill-rule="evenodd"/>
		<path id="Vector" d="M22.837 36.4646L16.837 46.8569" stroke="#000000" stroke-opacity="1.000000" stroke-width="0.900000" stroke-linecap="round"/>
		<path id="Vector" d="M12.909 47.3603C13.7789 45.8537 15.7054 45.3375 17.212 46.2073C18.7186 47.0772 19.2348 49.0037 18.365 50.5103C17.4951 52.0169 15.5686 52.5331 14.062 51.6633C12.5554 50.7934 12.0392 48.8669 12.909 47.3603Z" fill="#000000" fill-opacity="1.000000" fill-rule="evenodd"/>
	</g>
	<path id="LASER PROLAB" d="M195.037 42.845C196.437 43.765 198.087 44.225 199.987 44.225C201.887 44.225 203.527 43.765 204.907 42.845C206.307 41.905 207.387 40.645 208.147 39.065C208.907 37.465 209.287 35.685 209.287 33.725C209.287 31.765 208.907 29.995 208.147 28.415C207.387 26.815 206.307 25.555 204.907 24.635C203.527 23.695 201.887 23.225 199.987 23.225C198.087 23.225 196.437 23.695 195.037 24.635C193.657 25.555 192.587 26.815 191.827 28.415C191.067 29.995 190.687 31.765 190.687 33.725C190.687 35.685 191.067 37.465 191.827 39.065C192.587 40.645 193.657 41.905 195.037 42.845ZM101.909 43.865C102.729 44.045 103.539 44.135 104.339 44.135Q107.036 44.135 108.681 42.8192Q108.792 42.7301 108.899 42.635C110.019 41.615 110.579 40.265 110.579 38.585C110.579 37.465 110.279 36.555 109.679 35.855C109.079 35.135 108.139 34.395 106.859 33.635L103.169 31.445C102.069 30.805 101.239 30.205 100.679 29.645C100.119 29.085 99.8389 28.375 99.8389 27.515C99.8389 26.895 99.9989 26.365 100.319 25.925C100.659 25.465 101.099 25.115 101.639 24.875C102.179 24.615 102.739 24.485 103.319 24.485C105.019 24.485 106.349 24.915 107.309 25.775C108.269 26.635 108.919 28.075 109.259 30.095L109.799 30.095L109.799 26.885C109.799 26.305 109.599 25.795 109.199 25.355C108.819 24.915 108.309 24.545 107.669 24.245C107.029 23.925 106.329 23.685 105.569 23.525C104.809 23.365 104.059 23.285 103.319 23.285Q101.047 23.285 99.525 24.3535Q99.2987 24.5124 99.0889 24.695C98.0289 25.615 97.4989 26.845 97.4989 28.385C97.4989 29.505 97.7589 30.455 98.2789 31.235C98.8189 32.015 99.7289 32.785 101.009 33.545L104.699 35.735C105.799 36.375 106.619 37.005 107.159 37.625C107.719 38.245 107.999 38.995 107.999 39.875C107.999 40.535 107.809 41.095 107.429 41.555C107.069 42.015 106.589 42.365 105.989 42.605C105.389 42.825 104.749 42.935 104.069 42.935C102.369 42.935 101.019 42.495 100.019 41.615Q98.5489 40.295 98.0389 37.265L97.4989 37.265L97.4989 40.475C97.4989 41.035 97.6989 41.545 98.0989 42.005C98.4989 42.445 99.0289 42.825 99.6889 43.145C100.369 43.465 101.109 43.705 101.909 43.865ZM63.2874 27.425L63.2874 43.625L76.6374 43.625L76.6374 42.425L65.9874 42.425L65.9874 27.425Q65.9874 25.925 65.7474 25.145C65.5874 24.625 65.3074 24.275 64.9074 24.095Q64.3374 23.825 63.2874 23.825L60.5874 23.825L60.5874 24.425L61.1874 24.425C62.0874 24.425 62.6574 24.705 62.8974 25.265C63.1574 25.805 63.2874 26.525 63.2874 27.425ZM93.8759 43.535C94.5159 43.695 95.0559 43.775 95.4959 43.775Q95.8259 43.775 96.1259 43.715C96.3459 43.695 96.5359 43.665 96.6959 43.625L96.6959 43.025C95.8559 42.945 95.2159 42.685 94.7759 42.245C94.3359 41.785 93.8759 40.995 93.3959 39.875L86.7959 23.825L85.8959 23.825L77.4959 43.625L78.8459 43.625L81.2459 37.925L89.6459 37.925L90.3959 39.875C90.8359 41.035 91.3659 41.895 91.9859 42.455C92.6059 42.995 93.2359 43.355 93.8759 43.535ZM115.055 27.425L115.055 43.625L125.405 43.625C126.005 43.625 126.485 43.495 126.845 43.235C127.225 42.955 127.495 42.585 127.655 42.125L128.705 39.275L128.105 39.125C127.645 40.325 127.015 41.175 126.215 41.675C125.435 42.175 124.365 42.425 123.005 42.425L117.755 42.425L117.755 34.025L125.855 34.025L125.855 32.825L117.755 32.825L117.755 25.025L123.335 25.025C124.535 25.025 125.455 25.305 126.095 25.865C126.755 26.405 127.085 27.275 127.085 28.475L127.685 28.475L127.685 26.225C127.685 25.825 127.615 25.445 127.475 25.085C127.335 24.705 127.085 24.405 126.725 24.185C126.365 23.945 125.835 23.825 125.135 23.825L112.355 23.825L112.355 24.425L112.955 24.425C113.855 24.425 114.425 24.705 114.665 25.265C114.925 25.805 115.055 26.525 115.055 27.425ZM144.03 43.535C144.61 43.795 145.24 43.925 145.92 43.925C146.32 43.925 146.68 43.895 147 43.835Q147.51 43.745 147.75 43.625L147.75 43.025C147.01 42.945 146.34 42.675 145.74 42.215C145.14 41.735 144.46 40.855 143.7 39.575L140.55 34.325Q141.66 34.055 142.77 33.515Q143.274 33.2698 143.698 32.9255Q144.207 32.5118 144.6 31.955Q145.35 30.905 145.35 29.195Q145.35 27.755 144.81 26.795C144.47 26.155 144.01 25.635 143.43 25.235C142.87 24.835 142.25 24.535 141.57 24.335C140.91 24.135 140.25 24.005 139.59 23.945C138.93 23.865 138.35 23.825 137.85 23.825L130.05 23.825L130.05 24.425L130.65 24.425C131.55 24.425 132.12 24.705 132.36 25.265C132.62 25.805 132.75 26.525 132.75 27.425L132.75 43.625L135.45 43.625L135.45 34.475L137.55 34.475L140.55 39.575C141.21 40.675 141.81 41.545 142.35 42.185C142.91 42.805 143.47 43.255 144.03 43.535ZM158.092 27.425L158.092 43.625L160.792 43.625L160.792 35.525L164.092 35.525C164.432 35.525 164.872 35.495 165.412 35.435Q166.222 35.315 167.122 35.015Q168.022 34.685 168.832 34.055C169.392 33.635 169.842 33.085 170.182 32.405C170.522 31.705 170.692 30.845 170.692 29.825Q170.692 28.205 170.152 27.125C169.812 26.405 169.352 25.825 168.772 25.385C168.212 24.945 167.592 24.615 166.912 24.395C166.252 24.155 165.592 24.005 164.932 23.945C164.292 23.865 163.712 23.825 163.192 23.825L155.392 23.825L155.392 24.425L155.992 24.425C156.892 24.425 157.462 24.705 157.702 25.265C157.962 25.805 158.092 26.525 158.092 27.425ZM185.925 43.535C186.505 43.795 187.135 43.925 187.815 43.925C188.215 43.925 188.575 43.895 188.895 43.835Q189.405 43.745 189.645 43.625L189.645 43.025Q189.149 42.9714 188.696 42.8044Q188.133 42.5971 187.635 42.215C187.035 41.735 186.355 40.855 185.595 39.575L182.445 34.325Q183.555 34.055 184.665 33.515Q185.169 33.2698 185.593 32.9255Q186.102 32.5118 186.495 31.955Q187.245 30.905 187.245 29.195Q187.245 27.755 186.705 26.795C186.365 26.155 185.905 25.635 185.325 25.235C184.765 24.835 184.145 24.535 183.465 24.335C182.805 24.135 182.145 24.005 181.485 23.945C180.825 23.865 180.245 23.825 179.745 23.825L171.945 23.825L171.945 24.425L172.545 24.425C173.445 24.425 174.015 24.705 174.255 25.265C174.515 25.805 174.645 26.525 174.645 27.425L174.645 43.625L177.345 43.625L177.345 34.475L179.445 34.475L182.445 39.575C183.105 40.675 183.705 41.545 184.245 42.185C184.805 42.805 185.365 43.255 185.925 43.535ZM213.639 27.425L213.639 43.625L226.989 43.625L226.989 42.425L216.339 42.425L216.339 27.425Q216.339 25.925 216.099 25.145C215.939 24.625 215.659 24.275 215.259 24.095C214.879 23.915 214.339 23.825 213.639 23.825L210.939 23.825L210.939 24.425L211.539 24.425C212.439 24.425 213.009 24.705 213.249 25.265C213.509 25.805 213.639 26.525 213.639 27.425ZM244.228 43.535C244.867 43.695 245.408 43.775 245.848 43.775C246.068 43.775 246.277 43.755 246.478 43.715C246.697 43.695 246.887 43.665 247.048 43.625L247.048 43.025C246.208 42.945 245.568 42.685 245.128 42.245C244.688 41.785 244.228 40.995 243.747 39.875L237.148 23.825L236.247 23.825L227.848 43.625L229.197 43.625L231.598 37.925L239.997 37.925L240.747 39.875Q241.408 41.615 242.337 42.455C242.958 42.995 243.587 43.355 244.228 43.535ZM249.41 27.425L249.41 43.625L255.41 43.625C256.35 43.625 257.3 43.555 258.26 43.415Q259.73 43.175 260.93 42.605C261.75 42.225 262.41 41.685 262.91 40.985C263.41 40.265 263.66 39.345 263.66 38.225C263.66 37.405 263.52 36.675 263.24 36.035C262.96 35.395 262.46 34.855 261.74 34.415C261.02 33.955 260.01 33.625 258.71 33.425C260.07 32.965 261.06 32.355 261.68 31.595C262.3 30.815 262.61 29.975 262.61 29.075C262.61 27.915 262.34 26.985 261.8 26.285Q261.468 25.8546 261.061 25.515Q260.474 25.026 259.73 24.725C258.89 24.365 258 24.125 257.06 24.005C256.14 23.885 255.29 23.825 254.51 23.825L246.71 23.825L246.71 24.425L247.31 24.425C248.21 24.425 248.78 24.705 249.02 25.265C249.28 25.805 249.41 26.525 249.41 27.425ZM202.463 42.4748Q201.362 43.025 199.987 43.025C198.687 43.025 197.557 42.645 196.597 41.885C195.657 41.125 194.937 40.055 194.437 38.675Q193.687 36.575 193.687 33.725Q193.687 30.875 194.437 28.805C194.937 27.405 195.657 26.325 196.597 25.565C197.557 24.805 198.687 24.425 199.987 24.425Q201.362 24.425 202.463 24.9752Q202.946 25.217 203.377 25.565C204.317 26.325 205.037 27.405 205.537 28.805Q206.287 30.875 206.287 33.725Q206.287 36.575 205.537 38.675C205.037 40.055 204.317 41.125 203.377 41.885Q202.946 42.233 202.463 42.4748ZM137.61 33.425L135.45 33.425L135.45 25.175C135.75 25.095 136.1 25.025 136.5 24.965C136.92 24.905 137.29 24.875 137.61 24.875C138.05 24.875 138.54 24.955 139.08 25.115C139.62 25.275 140.14 25.525 140.64 25.865C141.14 26.205 141.55 26.645 141.87 27.185C142.19 27.725 142.35 28.385 142.35 29.165C142.35 29.945 142.19 30.605 141.87 31.145C141.55 31.685 141.14 32.125 140.64 32.465C140.14 32.785 139.62 33.025 139.08 33.185C138.54 33.345 138.05 33.425 137.61 33.425ZM163.042 34.475L160.792 34.475L160.792 25.175C161.092 25.095 161.442 25.025 161.842 24.965C162.262 24.905 162.662 24.875 163.042 24.875C163.462 24.875 163.932 24.955 164.452 25.115C164.972 25.275 165.482 25.545 165.982 25.925C166.482 26.305 166.892 26.805 167.212 27.425C167.532 28.025 167.692 28.775 167.692 29.675C167.692 30.575 167.532 31.335 167.212 31.955C166.892 32.555 166.482 33.045 165.982 33.425C165.482 33.805 164.972 34.075 164.452 34.235C163.932 34.395 163.462 34.475 163.042 34.475ZM179.505 33.425L177.345 33.425L177.345 25.175C177.645 25.095 177.995 25.025 178.395 24.965C178.815 24.905 179.185 24.875 179.505 24.875C179.945 24.875 180.435 24.955 180.975 25.115C181.515 25.275 182.035 25.525 182.535 25.865C183.035 26.205 183.445 26.645 183.765 27.185C184.085 27.725 184.245 28.385 184.245 29.165C184.245 29.945 184.085 30.605 183.765 31.145C183.445 31.685 183.035 32.125 182.535 32.465C182.035 32.785 181.515 33.025 180.975 33.185C180.435 33.345 179.945 33.425 179.505 33.425ZM254.96 32.975L252.11 32.975L252.11 25.175C252.41 25.095 252.76 25.025 253.16 24.965C253.58 24.905 253.98 24.875 254.36 24.875C255.16 24.875 255.97 25.015 256.79 25.295C257.63 25.555 258.33 25.985 258.89 26.585C259.47 27.185 259.76 27.965 259.76 28.925C259.76 29.825 259.52 30.575 259.04 31.175C258.58 31.775 257.98 32.225 257.24 32.525C256.52 32.825 255.76 32.975 254.96 32.975ZM89.0459 36.725L81.6959 36.725L85.4459 28.025L89.0459 36.725ZM239.398 36.725L232.048 36.725L235.798 28.025L239.398 36.725ZM259.16 41.495C258.18 42.215 256.78 42.575 254.96 42.575C254.5 42.575 254.02 42.545 253.52 42.485C253.04 42.405 252.57 42.295 252.11 42.155L252.11 34.175L254.96 34.175C256.84 34.175 258.26 34.535 259.22 35.255C260.18 35.975 260.66 37.015 260.66 38.375C260.66 39.735 260.16 40.775 259.16 41.495Z" fill="#000000" fill-opacity="1.000000" fill-rule="evenodd"/>
	<path id="Студия лазерной эпиляции и массажа" d="M165.851 65.6812Q166.381 66.0713 167.198 66.0713Q168.017 66.0713 168.544 65.6788Q168.584 65.6489 168.623 65.6167Q168.792 65.4762 168.91 65.3013Q169.175 64.9106 169.187 64.3486L168.654 64.3486Q168.645 64.704 168.486 64.9691Q168.388 65.1323 168.233 65.2612Q168.178 65.3065 168.119 65.3456Q167.741 65.5962 167.198 65.5962Q166.66 65.5962 166.28 65.3519Q166.215 65.3101 166.155 65.2612Q165.991 65.1269 165.89 64.9553Q165.736 64.6948 165.728 64.3486L165.208 64.3486Q165.218 64.9092 165.48 65.2993Q165.599 65.4753 165.769 65.6167Q165.809 65.6502 165.851 65.6812ZM51.8092 74.1192Q52.8144 74.5684 54.0203 74.5684Q55.0696 74.5684 55.972 74.2197Q56.6563 73.9563 57.1825 73.5076Q57.3529 73.3624 57.5066 73.1978L57.0589 72.7363Q56.6382 73.1522 56.1384 73.4209Q55.2251 73.9121 54.0477 73.9121Q53.1225 73.9121 52.3229 73.5952Q52.059 73.4906 51.8089 73.3516Q51.2607 73.0468 50.8408 72.6168Q50.4884 72.2558 50.2264 71.8066Q50.0765 71.5489 49.9658 71.2753Q49.6521 70.5004 49.6521 69.5986Q49.6521 68.7019 49.964 67.9314Q50.0753 67.6564 50.2264 67.3975Q50.4938 66.9374 50.8554 66.57Q51.2702 66.1486 51.8089 65.8491Q52.059 65.7101 52.3229 65.6055Q53.1225 65.2886 54.0477 65.2886Q55.2922 65.2886 56.2335 65.8229Q56.6804 66.0766 57.0589 66.4507L57.5066 65.9893Q57.3229 65.7925 57.116 65.6241Q56.6151 65.216 55.9788 64.9741Q55.0833 64.6289 54.0203 64.6289Q52.8251 64.6289 51.8269 65.0725Q51.6206 65.1642 51.4227 65.2749Q50.8262 65.6066 50.3601 66.0695Q49.9233 66.5033 49.6009 67.0522Q49.4397 67.3281 49.3177 67.6203Q48.9378 68.5302 48.9378 69.5986Q48.9378 70.6815 49.3261 71.6003Q49.4452 71.8821 49.6009 72.1484Q49.9233 72.6974 50.3601 73.1311Q50.8262 73.594 51.4227 73.9258Q51.6121 74.0311 51.8092 74.1192ZM124.754 71.3008Q124.314 70.8462 123.504 70.6924Q124.173 70.4976 124.58 70.0635Q124.81 69.8181 124.91 69.528Q124.987 69.3048 124.987 69.0552Q124.987 68.6842 124.847 68.3766Q124.65 67.9416 124.173 67.6333Q123.363 67.1069 122.143 67.1069Q121.561 67.1069 121.005 67.2286Q120.24 67.3961 119.525 67.7939L119.737 68.3545Q120.363 67.9933 121.037 67.8395Q121.536 67.7256 122.061 67.7256Q123.025 67.7256 123.647 68.0981Q123.998 68.3054 124.152 68.6117Q124.273 68.8511 124.273 69.1509Q124.273 69.3668 124.196 69.5509Q124.064 69.8681 123.705 70.0908Q123.138 70.4395 122.256 70.4395L121.108 70.4395L121.108 70.9727L122.283 70.9727Q123.292 70.9727 123.886 71.3452Q124.237 71.563 124.381 71.8759Q124.481 72.0934 124.481 72.3569Q124.481 72.6137 124.392 72.8347Q124.229 73.2404 123.767 73.5259Q123.052 73.9668 122.017 73.9668Q121.849 73.9668 121.683 73.954Q121.156 73.9135 120.639 73.7446Q119.959 73.519 119.47 73.0986L119.19 73.6182Q119.751 74.0796 120.499 74.3257Q120.914 74.4603 121.34 74.5202Q121.682 74.5684 122.03 74.5684Q122.885 74.5684 123.613 74.3052Q124.341 74.0386 124.768 73.5498Q124.994 73.2895 125.101 72.987Q125.195 72.7177 125.195 72.415Q125.195 72.0376 125.051 71.7274Q124.943 71.4953 124.754 71.3008ZM116.839 67.7948Q116.115 67.1377 114.794 67.1377Q114.159 67.1377 113.565 67.2936Q113.372 67.3442 113.184 67.4111Q112.415 67.6812 111.868 68.1733L112.217 68.6758Q112.682 68.2554 113.345 68.0059Q113.571 67.9201 113.804 67.8634Q114.258 67.7529 114.739 67.7529Q115.798 67.7529 116.351 68.2816L116.356 68.2861Q116.402 68.3304 116.445 68.3781Q116.91 68.9013 116.91 69.8379L116.91 70.4258L114.401 70.4258Q112.976 70.4258 112.323 70.9932Q112.048 71.2332 111.89 71.5343Q111.673 71.9451 111.673 72.4697Q111.673 72.983 111.883 73.3872Q112.058 73.7232 112.378 73.9839Q113.085 74.5547 114.305 74.5547Q115.242 74.5547 115.912 74.1992Q116.331 73.9755 116.626 73.6415Q116.805 73.4398 116.937 73.1978L116.937 74.5L117.607 74.5L117.607 69.8652Q117.607 68.6334 116.995 67.9505Q116.939 67.8888 116.879 67.8315Q116.859 67.8129 116.839 67.7948ZM127.576 71.0137L133.865 71.0137L133.879 70.8188Q133.879 69.8257 133.481 69.0311Q133.452 68.9725 133.421 68.915Q133.129 68.3758 132.7 67.9897Q132.46 67.7739 132.177 67.606Q132.003 67.5032 131.82 67.423Q131.169 67.1377 130.392 67.1377Q129.661 67.1377 129.036 67.3943Q128.81 67.4869 128.598 67.6128Q128.301 67.7897 128.052 68.0183Q127.632 68.4036 127.347 68.9355Q127.304 69.0164 127.264 69.0991Q126.892 69.8846 126.892 70.8462Q126.892 71.7958 127.267 72.562Q127.317 72.6645 127.374 72.7637Q127.601 73.1584 127.909 73.4725Q128.257 73.8275 128.711 74.0796Q128.775 74.1153 128.841 74.1483Q129.648 74.5547 130.659 74.5547Q131.413 74.5547 132.072 74.3055Q132.145 74.2778 132.218 74.2471Q132.741 74.024 133.134 73.6607Q133.283 73.523 133.414 73.3652L133.011 72.9038Q132.84 73.116 132.634 73.2849Q132.349 73.5186 131.995 73.6694Q131.986 73.6736 131.976 73.6777Q131.375 73.9258 130.673 73.9258Q129.86 73.9258 129.2 73.6082Q129.155 73.5866 129.111 73.5635Q128.743 73.3699 128.456 73.0929Q128.201 72.8467 128.01 72.5347Q127.952 72.4391 127.902 72.3397Q127.602 71.7456 127.576 71.0137ZM141.27 67.4086Q140.61 67.1377 139.838 67.1377Q139.142 67.1377 138.539 67.3752Q138.296 67.4712 138.067 67.606Q137.751 67.7935 137.492 68.0408Q137.104 68.411 136.844 68.915L136.844 67.1924L136.17 67.1924L136.17 77.2173L136.871 77.2173L136.871 72.8354Q137.11 73.2819 137.455 73.6203Q137.736 73.896 138.088 74.1001Q138.309 74.2278 138.544 74.3196Q139.145 74.5547 139.838 74.5547Q140.629 74.5547 141.303 74.2741Q141.5 74.1922 141.687 74.0864Q142.048 73.8818 142.341 73.6047Q142.719 73.2477 142.982 72.7705Q143.026 72.692 143.065 72.6116Q143.451 71.8232 143.451 70.8462Q143.451 69.8517 143.051 69.0584Q143.018 68.9929 142.982 68.9287Q142.734 68.4821 142.384 68.1387Q142.075 67.8355 141.687 67.6128Q141.484 67.4965 141.27 67.4086ZM156.528 74.2627Q157.216 74.5547 158.028 74.5547Q158.85 74.5547 159.542 74.2558Q159.723 74.1779 159.894 74.0796Q160.276 73.8624 160.582 73.5675Q160.946 73.2171 161.204 72.7568Q161.284 72.6138 161.351 72.4647Q161.682 71.7299 161.682 70.8462Q161.682 69.9625 161.351 69.2277Q161.284 69.0785 161.204 68.9355Q160.946 68.4753 160.582 68.1249Q160.276 67.8299 159.894 67.6128Q159.723 67.5145 159.542 67.4366Q158.85 67.1377 158.028 67.1377Q157.216 67.1377 156.528 67.4297Q156.339 67.5102 156.159 67.6128Q155.777 67.8299 155.471 68.1249Q155.107 68.4753 154.85 68.9355Q154.774 69.0701 154.711 69.2101Q154.374 69.9519 154.374 70.8462Q154.374 71.7404 154.711 72.4823Q154.774 72.6223 154.85 72.7568Q155.107 73.2171 155.471 73.5675Q155.777 73.8624 156.159 74.0796Q156.339 74.1822 156.528 74.2627ZM180.622 67.4663Q179.875 67.1377 178.983 67.1377Q178.101 67.1377 177.353 67.4111Q176.647 67.6658 176.157 68.1426Q176.127 68.1712 176.098 68.2007L176.505 68.6074Q176.763 68.3723 177.058 68.1998Q177.868 67.7256 178.956 67.7256Q179.67 67.7256 180.275 67.9817Q180.383 68.0273 180.487 68.0811Q180.859 68.2718 181.157 68.5442Q181.414 68.7795 181.615 69.0757Q181.753 69.2771 181.855 69.495Q182.076 69.9648 182.135 70.5112L178.019 70.5112L178.019 71.0547L182.148 71.0547Q182.112 71.6011 181.91 72.0774Q181.807 72.3221 181.659 72.5483Q181.465 72.8448 181.217 73.0846Q180.909 73.3811 180.518 73.5908Q180.356 73.677 180.186 73.7435Q179.614 73.9668 178.956 73.9668Q177.795 73.9668 176.961 73.4446Q176.719 73.2935 176.505 73.0986L176.098 73.519Q176.134 73.5556 176.171 73.5909Q176.657 74.0573 177.353 74.3052Q178.101 74.5684 178.983 74.5684Q179.875 74.5684 180.622 74.2397Q180.78 74.1704 180.931 74.0864Q181.371 73.8425 181.717 73.5031Q182.054 73.172 182.302 72.75Q182.451 72.497 182.555 72.227Q182.804 71.5849 182.804 70.8462Q182.804 70.0887 182.543 69.4362Q182.442 69.1849 182.302 68.9492Q182.065 68.5492 181.746 68.2306Q181.39 67.8741 180.931 67.6196Q180.78 67.5357 180.622 67.4663ZM61.383 67.8213L64.2404 67.8213L64.2404 67.1924L57.8283 67.1924L57.8283 67.8213L60.6823 67.8213L60.6823 74.5L61.383 74.5L61.383 67.8213ZM67.9519 75.4946L71.7014 67.1924L70.9904 67.1924L68.0612 73.731L65.1355 67.1924L64.3938 67.1924L67.6853 74.4727L67.2922 75.3545Q66.9709 76.0688 66.5915 76.3628Q66.4992 76.435 66.3974 76.4894Q66.0846 76.6567 65.6823 76.6567Q65.2942 76.6567 64.962 76.5203Q64.6127 76.3769 64.3254 76.0825L63.9734 76.6123Q64.053 76.6955 64.1412 76.7684Q64.3973 76.9799 64.7253 77.1045Q64.7381 77.1093 64.7509 77.1141Q65.1808 77.272 65.6687 77.272Q66.227 77.272 66.6751 77.0498Q66.8333 76.9714 66.9777 76.8652Q67.5315 76.4585 67.9519 75.4946ZM80.0022 76.3184L80.0022 73.8848L78.8264 73.8848L78.8264 67.1924L73.6892 67.1924L73.5935 69.5986Q73.4807 71.6152 73.2073 72.7295Q72.9943 73.5947 72.4973 73.813Q72.3562 73.8749 72.1922 73.8848L71.7581 73.8848L71.7581 76.3184L72.4314 76.3184L72.4314 74.5L79.346 74.5L79.346 76.3184L80.0022 76.3184ZM82.7754 67.1924L82.0747 67.1924L82.0747 74.5L82.6933 74.5L87.8989 68.269L87.8989 74.5L88.5996 74.5L88.5996 67.1924L87.9844 67.1924L82.7754 73.4233L82.7754 67.1924ZM97.0128 74.5L97.0128 67.1924L94.046 67.1924Q92.6447 67.1924 91.838 67.8076Q91.6108 67.9816 91.4479 68.2029Q91.0348 68.7641 91.0348 69.6294Q91.0348 70.4488 91.4207 70.9961Q91.463 71.0561 91.5099 71.1128Q91.5375 71.1459 91.5664 71.1777Q92.04 71.6982 92.8839 71.8818L90.9938 74.5L91.7628 74.5L93.5709 71.9673Q93.6803 71.981 93.9332 71.981L96.3703 71.981L96.3703 74.5L97.0128 74.5ZM109.35 74.5L109.35 67.1924L104.223 67.1924L104.1 69.7114Q104.028 71.0854 103.915 71.9399Q103.806 72.791 103.495 73.3652Q103.311 73.7077 103.028 73.8459Q102.836 73.9395 102.599 73.9395Q102.486 73.9395 102.264 73.8848L102.192 74.4863Q102.585 74.5854 102.797 74.5854Q103.12 74.5854 103.379 74.4573Q103.694 74.3016 103.915 73.9565Q104.322 73.3242 104.489 72.3022Q104.657 71.2803 104.742 69.7695L104.841 67.8213L108.649 67.8213L108.649 74.5L109.35 74.5ZM146.433 67.1924L145.733 67.1924L145.733 74.5L146.433 74.5L146.433 71.1401L151.389 71.1401L151.389 74.5L152.09 74.5L152.09 67.1924L151.389 67.1924L151.389 70.5249L146.433 70.5249L146.433 67.1924ZM164.661 67.1924L163.961 67.1924L163.961 74.5L164.579 74.5L169.785 68.269L169.785 74.5L170.486 74.5L170.486 67.1924L169.87 67.1924L164.661 73.4233L164.661 67.1924ZM191.443 74.5L191.443 67.1924L185.059 67.1924L185.059 74.5L185.759 74.5L185.759 67.8213L190.743 67.8213L190.743 74.5L191.443 74.5ZM195.167 67.1924L194.467 67.1924L194.467 74.5L195.085 74.5L200.291 68.269L200.291 74.5L200.992 74.5L200.992 67.1924L200.376 67.1924L195.167 73.4233L195.167 67.1924ZM209.73 74.5L209.73 67.1924L204.603 67.1924L204.48 69.7114Q204.408 71.0854 204.295 71.9399Q204.186 72.791 203.875 73.3652Q203.691 73.7077 203.408 73.8459Q203.216 73.9395 202.979 73.9395Q202.866 73.9395 202.644 73.8848L202.572 74.4863Q202.965 74.5854 203.177 74.5854Q203.5 74.5854 203.759 74.4573Q204.074 74.3016 204.295 73.9565Q204.702 73.3242 204.869 72.3022Q205.037 71.2803 205.122 69.7695L205.221 67.8213L209.029 67.8213L209.029 74.5L209.73 74.5ZM218.141 74.5L218.141 67.1924L215.174 67.1924Q213.773 67.1924 212.966 67.8076Q212.739 67.9816 212.576 68.2029Q212.163 68.7641 212.163 69.6294Q212.163 70.4488 212.549 70.9961Q212.591 71.0561 212.638 71.1128Q212.665 71.1459 212.694 71.1777Q213.168 71.6982 214.012 71.8818L212.122 74.5L212.891 74.5L214.699 71.9673Q214.808 71.981 215.061 71.981L217.498 71.981L217.498 74.5L218.141 74.5ZM228.63 76.4038L228.63 73.8848L227.409 73.8848L227.409 67.1924L226.709 67.1924L226.709 73.8848L221.865 73.8848L221.865 67.1924L221.165 67.1924L221.165 74.5L227.956 74.5L227.956 76.4038L228.63 76.4038ZM231.371 67.1924L230.671 67.1924L230.671 74.5L231.289 74.5L236.495 68.269L236.495 74.5L237.196 74.5L237.196 67.1924L236.58 67.1924L231.371 73.4233L231.371 67.1924ZM240.919 67.1924L240.219 67.1924L240.219 74.5L240.837 74.5L246.043 68.269L246.043 74.5L246.744 74.5L246.744 67.1924L246.128 67.1924L240.919 73.4233L240.919 67.1924ZM254.065 67.1924L253.365 67.1924L253.365 74.5L253.983 74.5L259.189 68.269L259.189 74.5L259.89 74.5L259.89 67.1924L259.274 67.1924L254.065 73.4233L254.065 67.1924ZM129.183 68.0046Q129.73 67.7529 130.392 67.7529Q131.009 67.7529 131.526 67.979Q131.655 68.0351 131.777 68.105Q132.03 68.2485 132.243 68.4372Q132.548 68.7069 132.771 69.0688Q132.839 69.1782 132.896 69.2929Q133.158 69.8232 133.192 70.4668L127.593 70.4668Q127.641 69.7855 127.927 69.2259Q127.969 69.1426 128.017 69.062Q128.25 68.6714 128.577 68.3914Q128.774 68.2231 129.005 68.0947Q129.092 68.0462 129.183 68.0046ZM141.024 73.6803Q140.464 73.9258 139.797 73.9258Q139.12 73.9258 138.557 73.6737Q138.42 73.6124 138.29 73.5361Q138.047 73.3923 137.841 73.2073Q137.485 72.8867 137.24 72.4424Q137.219 72.4043 137.2 72.3656Q136.857 71.693 136.857 70.8462Q136.857 69.9994 137.2 69.3268Q137.219 69.2881 137.24 69.25Q137.487 68.8014 137.848 68.4803Q138.051 68.2999 138.29 68.1597Q138.428 68.0782 138.573 68.0136Q139.13 67.7666 139.797 67.7666Q140.455 67.7666 141.008 68.0071Q141.162 68.0741 141.308 68.1597Q141.584 68.3198 141.812 68.5324Q142.138 68.8372 142.364 69.25Q142.39 69.2974 142.414 69.3457Q142.75 70.0113 142.75 70.8462Q142.75 71.6811 142.414 72.3467Q142.39 72.395 142.364 72.4424Q142.141 72.8507 141.819 73.1545Q141.589 73.3721 141.308 73.5361Q141.169 73.6165 141.024 73.6803ZM159.28 73.6671Q158.713 73.9258 158.028 73.9258Q157.352 73.9258 156.788 73.6737Q156.651 73.6124 156.521 73.5361Q156.278 73.3923 156.073 73.2073Q155.717 72.8867 155.472 72.4424Q155.451 72.4043 155.431 72.3656Q155.089 71.693 155.089 70.8462Q155.089 69.9994 155.431 69.3268Q155.451 69.2881 155.472 69.25Q155.719 68.8014 156.08 68.4803Q156.282 68.2999 156.521 68.1597Q156.659 68.0782 156.805 68.0136Q157.362 67.7666 158.028 67.7666Q158.703 67.7666 159.264 68.0201Q159.402 68.0823 159.532 68.1597Q159.787 68.3089 160.001 68.5038Q160.345 68.8177 160.581 69.25Q160.608 69.2974 160.632 69.3457Q160.968 70.0113 160.968 70.8462Q160.968 71.6811 160.632 72.3467Q160.608 72.395 160.581 72.4424Q160.348 72.8703 160.008 73.1835Q159.792 73.3831 159.532 73.5361Q159.409 73.6083 159.28 73.6671ZM92.0697 70.7676Q91.7355 70.3441 91.7355 69.6567Q91.7355 68.9502 92.0788 68.5137Q92.634 67.8076 94.0871 67.8076L96.3703 67.8076L96.3703 71.4478L94.005 71.4478Q92.6065 71.4478 92.0697 70.7676ZM213.198 70.7676Q212.864 70.3441 212.864 69.6567Q212.864 68.9502 213.207 68.5137Q213.762 67.8076 215.215 67.8076L217.498 67.8076L217.498 71.4478L215.133 71.4478Q213.734 71.4478 213.198 70.7676ZM73.9558 72.415Q74.1643 71.3076 74.2361 69.6431L74.3216 67.8213L78.1292 67.8213L78.1292 73.8848L73.2005 73.8848Q73.7473 73.519 73.9558 72.415ZM115.949 73.5635Q115.314 73.9805 114.401 73.9805Q113.437 73.9805 112.904 73.5703Q112.676 73.3938 112.546 73.1626Q112.371 72.8519 112.371 72.4424Q112.371 72.0047 112.566 71.6877Q112.678 71.5071 112.853 71.3657Q113.338 70.9727 114.415 70.9727L116.91 70.9727L116.91 72.3433Q116.637 73.016 116.143 73.4203Q116.05 73.4967 115.949 73.5635ZM220.117 81.7948Q219.393 81.1377 218.072 81.1377Q217.437 81.1377 216.843 81.2936Q216.651 81.3442 216.462 81.4111Q215.693 81.6812 215.146 82.1733L215.495 82.6758Q215.96 82.2554 216.623 82.0059Q216.849 81.9201 217.082 81.8634Q217.536 81.7529 218.017 81.7529Q219.076 81.7529 219.629 82.2816L219.634 82.2861Q219.68 82.3304 219.723 82.3781Q220.188 82.9013 220.188 83.8379L220.188 84.4258L217.679 84.4258Q216.254 84.4258 215.601 84.9932Q215.326 85.2332 215.168 85.5343Q214.951 85.9451 214.951 86.4697Q214.951 86.983 215.161 87.3872Q215.336 87.7232 215.656 87.9839Q216.363 88.5547 217.583 88.5547Q218.52 88.5547 219.19 88.1992Q219.61 87.9755 219.904 87.6415Q220.083 87.4397 220.215 87.1978L220.215 88.5L220.885 88.5L220.885 83.8652Q220.885 82.6334 220.273 81.9505Q220.217 81.8888 220.157 81.8315Q220.137 81.8129 220.117 81.7948ZM225.022 88.2045Q225.771 88.5547 226.683 88.5547Q227.559 88.5547 228.277 88.2175L228.286 88.2129Q228.65 88.0407 228.943 87.7879Q229.233 87.5388 229.455 87.2114L228.939 86.8354Q228.675 87.2012 228.325 87.4446Q228.155 87.5629 227.965 87.6523Q227.931 87.6685 227.896 87.6837Q227.343 87.9258 226.683 87.9258Q225.964 87.9258 225.368 87.6545Q225.256 87.6035 225.149 87.543Q224.871 87.3846 224.642 87.1733Q224.313 86.8694 224.086 86.4561L224.084 86.4527Q223.703 85.7532 223.703 84.8462Q223.703 83.9392 224.084 83.2397L224.086 83.2363Q224.316 82.8188 224.649 82.5141Q224.875 82.3075 225.149 82.1528Q225.265 82.087 225.386 82.0324Q225.974 81.7666 226.683 81.7666Q227.343 81.7666 227.896 82.0087Q227.931 82.0239 227.965 82.04Q228.155 82.1295 228.325 82.2477Q228.675 82.4912 228.939 82.8569L229.455 82.481Q229.233 82.1536 228.943 81.9045Q228.65 81.6516 228.286 81.4795L228.277 81.4749Q227.559 81.1377 226.683 81.1377Q225.749 81.1377 224.986 81.4996Q224.881 81.5494 224.779 81.606Q224.386 81.8249 224.073 82.1268Q223.717 82.4706 223.464 82.9219Q223.41 83.0182 223.362 83.1174Q222.988 83.8918 222.988 84.8462Q222.988 85.7404 223.325 86.4823Q223.388 86.6223 223.464 86.7568Q223.711 87.1986 224.058 87.5392Q224.377 87.8521 224.779 88.0796Q224.898 88.1468 225.022 88.2045ZM232.694 88.2045Q233.443 88.5547 234.355 88.5547Q235.231 88.5547 235.949 88.2175L235.958 88.2129Q236.322 88.0407 236.615 87.7879Q236.905 87.5388 237.127 87.2114L236.611 86.8354Q236.347 87.2012 235.997 87.4446Q235.827 87.5629 235.637 87.6523Q235.603 87.6685 235.568 87.6837Q235.015 87.9258 234.355 87.9258Q233.636 87.9258 233.04 87.6545Q232.928 87.6035 232.821 87.543Q232.543 87.3846 232.314 87.1733Q231.985 86.8694 231.758 86.4561L231.756 86.4527Q231.375 85.7532 231.375 84.8462Q231.375 83.9392 231.756 83.2397L231.758 83.2363Q231.988 82.8188 232.321 82.5141Q232.547 82.3075 232.821 82.1528Q232.937 82.087 233.058 82.0324Q233.646 81.7666 234.355 81.7666Q235.015 81.7666 235.568 82.0087Q235.603 82.0239 235.637 82.04Q235.827 82.1295 235.997 82.2477Q236.347 82.4912 236.611 82.8569L237.127 82.481Q236.905 82.1536 236.615 81.9045Q236.322 81.6516 235.958 81.4795L235.949 81.4749Q235.231 81.1377 234.355 81.1377Q233.421 81.1377 232.658 81.4996Q232.553 81.5494 232.451 81.606Q232.058 81.8249 231.745 82.1268Q231.389 82.4706 231.136 82.9219Q231.082 83.0182 231.034 83.1174Q230.66 83.8918 230.66 84.8462Q230.66 85.7404 230.997 86.4823Q231.06 86.6223 231.136 86.7568Q231.383 87.1986 231.73 87.5392Q232.049 87.8521 232.451 88.0796Q232.57 88.1468 232.694 88.2045ZM243.665 81.7948Q242.941 81.1377 241.62 81.1377Q240.985 81.1377 240.391 81.2936Q240.199 81.3442 240.01 81.4111Q239.241 81.6812 238.694 82.1733L239.043 82.6758Q239.508 82.2554 240.171 82.0059Q240.397 81.9201 240.63 81.8634Q241.084 81.7529 241.565 81.7529Q242.624 81.7529 243.177 82.2816L243.182 82.2861Q243.228 82.3304 243.271 82.3781Q243.736 82.9013 243.736 83.8379L243.736 84.4258L241.227 84.4258Q239.802 84.4258 239.149 84.9932Q238.874 85.2332 238.716 85.5343Q238.499 85.9451 238.499 86.4697Q238.499 86.983 238.709 87.3872Q238.884 87.7232 239.204 87.9839Q239.911 88.5547 241.131 88.5547Q242.068 88.5547 242.738 88.1992Q243.158 87.9755 243.452 87.6415Q243.631 87.4397 243.763 87.1978L243.763 88.5L244.433 88.5L244.433 83.8652Q244.433 82.6334 243.821 81.9505Q243.765 81.8888 243.705 81.8315Q243.685 81.8129 243.665 81.7948ZM262.901 81.7948Q262.177 81.1377 260.856 81.1377Q260.221 81.1377 259.627 81.2936Q259.435 81.3442 259.246 81.4111Q258.477 81.6812 257.93 82.1733L258.279 82.6758Q258.744 82.2554 259.407 82.0059Q259.633 81.9201 259.866 81.8634Q260.32 81.7529 260.801 81.7529Q261.86 81.7529 262.413 82.2816L262.418 82.2861Q262.464 82.3304 262.507 82.3781Q262.972 82.9013 262.972 83.8379L262.972 84.4258L260.463 84.4258Q259.038 84.4258 258.385 84.9932Q258.11 85.2332 257.952 85.5343Q257.735 85.9451 257.735 86.4697Q257.735 86.983 257.945 87.3872Q258.12 87.7232 258.44 87.9839Q259.147 88.5547 260.367 88.5547Q261.304 88.5547 261.974 88.1992Q262.394 87.9755 262.688 87.6415Q262.867 87.4397 262.999 87.1978L262.999 88.5L263.669 88.5L263.669 83.8652Q263.669 82.6334 263.057 81.9505Q263.001 81.8888 262.941 81.8315Q262.921 81.8129 262.901 81.7948ZM212.626 88.5L212.626 81.1924L211.98 81.1924L208.665 86.7227L205.36 81.1924L204.673 81.1924L204.673 88.5L205.319 88.5L205.319 82.3271L208.48 87.5635L208.805 87.5635L211.98 82.3135L211.98 88.5L212.626 88.5ZM251.756 85.1128L253.478 85.1128L255.915 88.5L256.753 88.5L254.039 84.7471L256.544 81.1924L255.775 81.1924L253.478 84.5112L251.756 84.5112L251.756 81.1924L251.055 81.1924L251.055 84.5112L249.349 84.5112L247.053 81.1924L246.284 81.1924L248.789 84.7471L246.058 88.5L246.912 88.5L249.349 85.1128L251.055 85.1128L251.055 88.5L251.756 88.5L251.756 85.1128ZM219.227 87.5635Q218.592 87.9805 217.679 87.9805Q216.715 87.9805 216.182 87.5703Q215.954 87.3938 215.824 87.1626Q215.649 86.8519 215.649 86.4424Q215.649 86.0047 215.844 85.6877Q215.956 85.5071 216.131 85.3657Q216.616 84.9727 217.693 84.9727L220.188 84.9727L220.188 86.3433Q219.915 87.016 219.422 87.4203Q219.328 87.4967 219.227 87.5635ZM242.775 87.5635Q242.14 87.9805 241.227 87.9805Q240.263 87.9805 239.73 87.5703Q239.502 87.3938 239.372 87.1626Q239.197 86.8519 239.197 86.4424Q239.197 86.0047 239.392 85.6877Q239.504 85.5071 239.679 85.3657Q240.164 84.9727 241.241 84.9727L243.736 84.9727L243.736 86.3433Q243.463 87.016 242.97 87.4203Q242.876 87.4967 242.775 87.5635ZM262.011 87.5635Q261.376 87.9805 260.463 87.9805Q259.499 87.9805 258.966 87.5703Q258.738 87.3938 258.608 87.1626Q258.433 86.8519 258.433 86.4424Q258.433 86.0047 258.628 85.6877Q258.74 85.5071 258.915 85.3657Q259.4 84.9727 260.477 84.9727L262.972 84.9727L262.972 86.3433Q262.699 87.016 262.206 87.4203Q262.112 87.4967 262.011 87.5635Z" fill="#000000" fill-opacity="1.000000" fill-rule="evenodd"/>
</svg>
