<svg width="50.000000" height="50.000000" viewBox="0 0 50 50" fill="none" xmlns="http://www.w3.org/2000/svg" xmlns:xlink="http://www.w3.org/1999/xlink">
	<desc>
			Created with Pixso.
	</desc>
	<defs>
		<clipPath id="clip149_94">
			<rect id="icons8-vk-100 1" width="50.000000" height="50.000000" fill="white" fill-opacity="0"/>
		</clipPath>
	</defs>
	<rect id="icons8-vk-100 1" width="50.000000" height="50.000000" fill="#FFFFFF" fill-opacity="0"/>
	<g clip-path="url(#clip149_94)">
		<path id="Vector" d="M25 2C12.3093 2 2 12.3093 2 25C2 37.6907 12.3093 48 25 48C37.6907 48 48 37.6907 48 25C48 12.3093 37.6907 2 25 2ZM25 4C36.6098 4 46 13.3902 46 25C46 36.6098 36.6098 46 25 46C13.3902 46 4 36.6098 4 25C4 13.3902 13.3902 4 25 4ZM15.002 18L10.9668 18.002C10.9668 18.002 10.7359 17.9889 10.457 18.0254C10.1782 18.0618 9.76617 18.0788 9.34375 18.5566L9.3418 18.5586L9.33984 18.5605C8.96405 18.9903 8.97839 19.4904 9.02539 19.7656C9.0722 20.0398 9.17773 20.2461 9.17773 20.2461L9.17773 20.248C9.21655 20.3432 12.1464 27.5219 15.8398 31.3789C18.4451 34.1013 21.2314 35 23.7129 35L25 35C25.4235 35 25.8016 34.9807 26.2207 34.7637C26.6398 34.5466 27 33.9476 27 33.4824C27 32.9812 27.0123 32.4954 27.0762 32.2246C27.1358 31.9717 27.1128 32.0338 27.1367 32.0332C27.1607 32.0384 27.2043 32.0485 27.2871 32.0859C27.4655 32.1666 27.7411 32.3466 28.0469 32.584C28.6574 33.0579 29.3805 33.7455 30.1914 34.2773C31.3528 35.0471 32.6133 35 32.6133 35L36.7695 35L36.8145 34.9961C36.8145 34.9961 37.4522 34.9816 38.1074 34.5801C38.4351 34.3793 38.8243 34.011 38.9551 33.459C39.0858 32.9069 38.9189 32.3277 38.5977 31.8184C38.4803 31.6315 37.9106 30.8059 35.6367 28.7871C35.0493 28.2661 34.6487 27.8973 34.4902 27.7012C34.434 27.6315 34.4293 27.6383 34.418 27.6348C34.4312 27.6006 34.5626 27.3239 34.9141 26.8672C35.2804 26.3912 35.837 25.7279 36.5527 24.8164C37.465 23.6542 38.105 22.5367 38.5078 21.5937C38.7092 21.1223 38.852 20.6944 38.9375 20.3066C39.0231 19.9188 39.0913 19.5965 38.9648 19.1367C38.8705 18.7945 38.6144 18.488 38.3633 18.3261C38.1122 18.1644 37.8781 18.1034 37.668 18.0644C37.2477 17.9865 36.877 18 36.5312 18C35.8074 18 32.5898 18.0254 32.3242 18.0254C32.0125 18.0254 31.5153 18.1552 31.2852 18.2871C30.7139 18.6143 30.5352 19.0625 30.5352 19.0625L30.4805 19.1582L30.4492 19.2656C30.4492 19.2656 29.7166 21.6358 28.9629 22.8574L28.9609 22.8574C28.0748 24.2965 27.4137 24.8673 27.123 25.0293C27.0922 25.0465 27.1093 25.0373 27.0879 25.0488C27.0652 24.9826 27.0365 24.8914 27.0176 24.7226C26.9751 24.3424 27 23.8069 27 23.289C27 21.8546 27.1077 20.9602 26.9883 20.1133C26.9286 19.6898 26.7766 19.2182 26.4297 18.8555C26.0829 18.4927 25.6349 18.3141 25.1875 18.2109L25.1855 18.2109C24.7194 18.1036 24.2169 18.0114 23.0098 18C21.4718 17.9856 20.4702 18.0333 19.5801 18.4297L19.5703 18.4355L19.5625 18.4395C19.2108 18.6046 18.9336 18.794 18.6895 19.0469C18.5674 19.1733 18.4225 19.2654 18.3223 19.668C18.2721 19.8692 18.2666 20.2501 18.4941 20.5586C18.7217 20.8671 19.0405 20.9601 19.2285 20.9844C19.1938 20.9799 19.3764 21.0201 19.5176 21.0898C19.6588 21.1596 19.7813 21.2601 19.8125 21.3008L19.8125 21.3027C19.7994 21.2858 19.935 21.6226 19.9707 21.9297C20.0064 22.2367 20 22.4844 20 22.4844L19.998 22.5449L20.0039 22.6055C20.0039 22.6055 20.0653 23.2849 20.0332 23.9863C20.0172 24.337 19.9728 24.69 19.9141 24.9062C19.9109 24.9177 19.9095 24.9137 19.9062 24.9238C19.6559 24.749 19.0786 24.1397 18.2832 22.8262C17.548 21.6111 16.8594 19.4258 16.8594 19.4258L16.8438 19.377L16.8262 19.3301C16.8262 19.3301 16.6978 18.8419 16.1309 18.4434C15.5995 18.0693 15.0938 18.0176 15.0938 18.0176L15.002 18ZM14.7695 20C14.8267 20.0209 14.9463 20.064 14.9688 20.0742L14.9453 20.0039L14.9766 20.0762L14.9805 20.0781L14.9805 20.0801L14.9824 20.0801C14.9322 20.0449 14.9748 20.0798 14.9805 20.0879C15.0081 20.1821 15.6187 22.2854 16.5723 23.8613C17.441 25.296 18.0827 26.0997 18.7832 26.5801C19.483 27.06 20.424 27.0106 20.9023 26.7617C21.5416 26.4297 21.7203 25.8841 21.8438 25.4297C21.9672 24.9752 22.0113 24.5142 22.0312 24.0781C22.0693 23.2461 22.0042 22.5655 21.998 22.498C21.9991 22.4605 22.0079 22.1354 21.957 21.6973C21.9057 21.2558 21.8137 20.7072 21.4219 20.1562C21.8608 20.091 22.1044 19.9917 22.9902 20C24.1199 20.0106 24.2917 20.0578 24.7363 20.1602C24.9785 20.216 25.0054 20.2623 24.9824 20.2383C24.9595 20.2143 24.9804 20.1983 25.0078 20.3926C25.0626 20.7811 25 21.7775 25 23.2891C25 23.7152 24.9589 24.316 25.0293 24.9453C25.0997 25.5742 25.2963 26.3789 26.0566 26.8496C26.4899 27.1178 27.3176 27.21 28.0977 26.7754C28.8777 26.3408 29.6783 25.5071 30.6641 23.9063C31.6379 22.3278 32.2202 20.2526 32.2832 20.0332C32.2832 20.0332 32.2943 20.026 32.3008 20.0215C32.3185 20.0223 32.296 20.0254 32.3242 20.0254C32.6946 20.0254 35.8551 20 36.5312 20C36.7173 20 36.799 20.01 36.9375 20.0156C36.8815 20.2315 36.8063 20.483 36.668 20.8067C36.343 21.5675 35.7853 22.5542 34.9785 23.582C34.2833 24.4675 33.7431 25.1098 33.3301 25.6465C32.9171 26.1832 32.5926 26.6066 32.457 27.2188C32.3215 27.8309 32.5801 28.5214 32.9336 28.959C33.2871 29.3966 33.7245 29.7652 34.3086 30.2832C36.5087 32.2365 36.8696 32.8277 36.9043 32.8828L36.9043 32.8848C36.9415 32.9437 36.9174 32.8844 36.9316 32.9141C36.8069 32.953 36.6584 32.9969 36.6445 33L32.5977 33L32.5918 33C32.5918 33 31.8475 32.9756 31.2949 32.6094L31.293 32.6074L31.291 32.6074C30.7065 32.2246 30 31.568 29.2734 31.0039C28.9102 30.7219 28.5403 30.4576 28.1113 30.2637C27.6824 30.0698 27.1387 29.9323 26.5664 30.1035C25.7382 30.3514 25.2785 31.1397 25.1309 31.7656C25.0249 32.215 25.0406 32.6058 25.0371 32.9981C25.0086 32.9996 25.0333 33 25 33L23.7129 33C21.6804 33 19.5659 32.3795 17.2852 29.9961C14.32 26.8997 11.6745 20.9116 11.2773 20.002L14.7695 20ZM32.2129 20.0078C32.1948 20.0118 32.2466 20.0158 32.2891 20.0195C32.2833 20.0226 32.2896 20.0168 32.2812 20.0215C32.2804 20.0048 32.2373 20.0024 32.2129 20.0078Z" fill="#ED97B3" fill-opacity="1.000000" fill-rule="nonzero"/>
	</g>
</svg>
